<svg xmlns="http://www.w3.org/2000/svg" xmlns:xlink="http://www.w3.org/1999/xlink" id="logo-pink-stars" viewBox="0 0 147 40">
  <g>
    <path d="M50.9203 15.9169C50.3273 15.9182 49.7398 15.8045 49.1915 15.5822C48.6432 15.36 48.1448 15.0337 47.725 14.6219C47.3052 14.21 46.9721 13.7209 46.7448 13.1823C46.5176 12.6438 46.4006 12.0665 46.4006 11.4835C46.3979 12.6602 45.9206 13.7878 45.0733 14.619C44.2259 15.4501 43.0778 15.9169 41.8809 15.9169C43.0788 15.9195 44.2268 16.3885 45.0739 17.2212C45.9209 18.0539 46.3979 19.1825 46.4006 20.3602C46.4006 19.1817 46.8768 18.0516 47.7244 17.2183C48.572 16.385 49.7216 15.9169 50.9203 15.9169Z"/>
    <path d="M38.0743 19.3826C37.3417 19.3826 36.6392 19.0966 36.1212 18.5873C35.6032 18.0781 35.3122 17.3875 35.3122 16.6673C35.3122 17.3857 35.0226 18.0749 34.5068 18.5839C33.9909 19.0928 33.291 19.38 32.5602 19.3826C33.2901 19.3826 33.99 19.6677 34.5062 20.1751C35.0223 20.6824 35.3122 21.3706 35.3122 22.0881C35.3149 21.3697 35.607 20.6816 36.1247 20.1745C36.6424 19.6674 37.3435 19.3826 38.0743 19.3826Z"/>
    <path d="M10.7851 33.6407C10.0561 33.6355 9.35868 33.3471 8.84503 32.8384C8.33138 32.3298 8.04314 31.6421 8.04316 30.9253C8.04316 31.6438 7.75354 32.333 7.23772 32.8419C6.7219 33.3508 6.02194 33.6381 5.29114 33.6407C6.02194 33.6433 6.7219 33.9305 7.23772 34.4395C7.75354 34.9484 8.04316 35.6376 8.04316 36.356C8.04314 35.6393 8.33138 34.9516 8.84503 34.4429C9.35868 33.9343 10.0561 33.6459 10.7851 33.6407Z"/>
  </g>
</svg>
