<svg width="49" height="566" viewBox="0 0 49 566" fill="none" xmlns="http://www.w3.org/2000/svg">
<circle cx="24.5" cy="24.5" r="19.5" fill="white" stroke="#E5E5E5" stroke-width="2"/>
<circle cx="24.5" cy="24.5" r="19.5" fill="white" stroke="#E5E5E5" stroke-width="2"/>
<circle cx="24.5" cy="165.5" r="19.5" fill="white" stroke="#E5E5E5" stroke-width="2"/>
<circle cx="24.5" cy="165.5" r="19.5" fill="white" stroke="#E5E5E5" stroke-width="2"/>
<circle cx="24.5" cy="118.5" r="19.5" fill="white" stroke="#D22856" stroke-width="2"/>
<circle cx="24.5" cy="71.5" r="19.5" fill="white" stroke="#283645" stroke-width="2"/>
<circle cx="24.5" cy="165.5" r="7.5" fill="#D22856"/>
<circle cx="24.5" cy="259.5" r="19.5" fill="white" stroke="#E5E5E5" stroke-width="2"/>
<circle cx="24.5" cy="259.5" r="19.5" fill="white" stroke="#D22856" stroke-width="2"/>
<circle cx="24.5" cy="259.5" r="7.5" fill="#D22856"/>
<circle cx="24.5" cy="212.5" r="19.5" fill="white" stroke="#E5E5E5" stroke-width="2"/>
<circle cx="24.5" cy="212.5" r="19.5" fill="white" stroke="#283645" stroke-width="2"/>
<circle cx="24.5" cy="212.5" r="7.5" fill="#D22856"/>
<rect x="6" y="288" width="37" height="37" rx="2" fill="white" stroke="#E5E5E5" stroke-width="2"/>
<rect x="6" y="335" width="37" height="37" rx="2" fill="white" stroke="#283645" stroke-width="2"/>
<rect x="6" y="382" width="37" height="37" rx="2" fill="white" stroke="#D22856" stroke-width="2"/>
<rect x="6" y="429" width="37" height="37" rx="2" fill="white" stroke="#E5E5E5" stroke-width="2"/>
<path d="M35.7001 439.284C35.5105 439.102 35.2557 439 34.9903 439C34.7249 439 34.47 439.102 34.2805 439.284L20.7032 452.603L15.7347 447.729C15.6405 447.636 15.5283 447.562 15.4047 447.511C15.2812 447.461 15.1486 447.435 15.0148 447.435C14.8809 447.435 14.7484 447.461 14.6248 447.511C14.5013 447.562 14.3891 447.636 14.2949 447.729C14.106 447.915 14 448.167 14 448.43C14 448.693 14.106 448.945 14.2949 449.131L19.9833 454.712C20.0781 454.804 20.1904 454.877 20.314 454.926C20.4375 454.976 20.5698 455.001 20.7032 455C20.9692 454.999 21.2242 454.895 21.413 454.712L35.7001 440.697C35.7951 440.604 35.8705 440.494 35.922 440.373C35.9735 440.252 36 440.122 36 439.991C36 439.859 35.9735 439.729 35.922 439.608C35.8705 439.487 35.7951 439.377 35.7001 439.284V439.284Z" fill="#D22856"/>
<rect x="6" y="523" width="37" height="37" rx="2" fill="white" stroke="#D22856" stroke-width="2"/>
<path d="M35.7001 533.284C35.5105 533.102 35.2557 533 34.9903 533C34.7249 533 34.47 533.102 34.2805 533.284L20.7032 546.603L15.7347 541.729C15.6405 541.636 15.5283 541.562 15.4047 541.511C15.2812 541.461 15.1486 541.435 15.0148 541.435C14.8809 541.435 14.7484 541.461 14.6248 541.511C14.5013 541.562 14.3891 541.636 14.2949 541.729C14.106 541.915 14 542.167 14 542.43C14 542.693 14.106 542.945 14.2949 543.131L19.9833 548.712C20.0781 548.804 20.1904 548.877 20.314 548.926C20.4375 548.976 20.5698 549.001 20.7032 549C20.9692 548.999 21.2242 548.895 21.413 548.712L35.7001 534.697C35.7951 534.604 35.8705 534.494 35.922 534.373C35.9735 534.252 36 534.122 36 533.991C36 533.859 35.9735 533.729 35.922 533.608C35.8705 533.487 35.7951 533.377 35.7001 533.284V533.284Z" fill="#D22856"/>
<rect x="6" y="476" width="37" height="37" rx="2" fill="white" stroke="#283645" stroke-width="2"/>
<path d="M35.7001 486.284C35.5105 486.102 35.2557 486 34.9903 486C34.7249 486 34.47 486.102 34.2805 486.284L20.7032 499.603L15.7347 494.729C15.6405 494.636 15.5283 494.562 15.4047 494.511C15.2812 494.461 15.1486 494.435 15.0148 494.435C14.8809 494.435 14.7484 494.461 14.6248 494.511C14.5013 494.562 14.3891 494.636 14.2949 494.729C14.106 494.915 14 495.167 14 495.43C14 495.693 14.106 495.945 14.2949 496.131L19.9833 501.712C20.0781 501.804 20.1904 501.877 20.314 501.926C20.4375 501.976 20.5698 502.001 20.7032 502C20.9692 501.999 21.2242 501.895 21.413 501.712L35.7001 487.697C35.7951 487.604 35.8705 487.494 35.922 487.373C35.9735 487.252 36 487.122 36 486.991C36 486.859 35.9735 486.729 35.922 486.608C35.8705 486.487 35.7951 486.377 35.7001 486.284V486.284Z" fill="#D22856"/>
</svg>
