<svg width="48" height="254" viewBox="0 0 48 254" fill="none" xmlns="http://www.w3.org/2000/svg">
<path d="M21.8336 197.809C21.6463 197.928 21.4247 197.994 21.1963 198C20.9678 198.005 20.7426 197.95 20.5487 197.84C20.3548 197.73 20.2007 197.571 20.1056 197.382C20.0106 197.194 19.9787 196.984 20.014 196.779V186.221C19.9787 186.016 20.0106 185.806 20.1056 185.618C20.2007 185.429 20.3548 185.27 20.5487 185.16C20.7426 185.05 20.9678 184.995 21.1963 185C21.4247 185.006 21.6463 185.072 21.8336 185.191L34.2333 190.693C35.2556 191.138 35.2556 191.862 34.2333 192.307L21.8336 197.809Z" fill="#D22856"/>
<path d="M21.8336 236.809C21.6463 236.928 21.4247 236.994 21.1963 237C20.9678 237.005 20.7426 236.95 20.5487 236.84C20.3548 236.73 20.2007 236.571 20.1056 236.382C20.0106 236.194 19.9787 235.984 20.014 235.779V225.221C19.9787 225.016 20.0106 224.806 20.1056 224.618C20.2007 224.429 20.3548 224.27 20.5487 224.16C20.7426 224.05 20.9678 223.995 21.1963 224C21.4247 224.006 21.6463 224.072 21.8336 224.191L34.2333 229.693C35.2556 230.138 35.2556 230.862 34.2333 231.307L21.8336 236.809Z" fill="#D22856" fill-opacity="0.3"/>
<path d="M26.5087 100.193H29V97H26.0208C22.7612 97.1711 21.5986 99.2714 22.0761 102.816H20V106.152H22.0761V115H26.0208V106.152H28.9792V102.816H26.0104C25.9896 101.818 25.9689 100.526 26.5087 100.193Z" fill="#D22856"/>
<path opacity="0.3" d="M26.5087 144.193H29V141H26.0208C22.7612 141.171 21.5986 143.271 22.0761 146.816H20V150.152H22.0761V159H26.0208V150.152H28.9792V146.816H26.0104C25.9896 145.818 25.9689 144.526 26.5087 144.193Z" fill="#D22856"/>
<path d="M26.5641 17.1689C27.2458 16.9538 27.9837 16.9439 28.6719 17.1405C29.3602 17.3371 29.9633 17.7301 30.3947 18.2632C31.1053 18.0538 31.8055 17.816 32.5263 17.6066C32.5164 17.9258 32.4299 18.2391 32.2732 18.5237C32.1165 18.8084 31.8935 19.0574 31.6201 19.2528C31.8726 19.2788 32.1281 19.2511 32.3673 19.172C32.6064 19.0928 32.8228 18.9642 33 18.7961C32.901 19.2099 32.6999 19.597 32.4123 19.9271C32.1247 20.2572 31.7585 20.5214 31.3421 20.6992C31.095 26.9699 27.9748 31.1662 20.6533 30.9949H20.1487C19.7059 30.9949 15.7311 30.5667 15 29.2441C16.752 29.4899 18.5389 29.0976 19.984 28.1498C18.9542 27.8643 17.1316 27.7026 16.8227 25.4093C17.2108 25.5434 17.6321 25.5731 18.0378 25.495C16.7609 24.7052 15.3398 24.0391 15.4222 21.9933C15.8196 22.2988 16.3269 22.4551 16.8432 22.431C16.1018 22.2026 14.7529 19.3099 15.8959 17.8255C17.8215 19.5478 19.8604 21.1749 23.4851 21.3367C23.7117 19.2052 24.6899 17.7779 26.5641 17.1689Z" fill="#D22856"/>
<path opacity="0.3" d="M26.5641 57.1689C27.2458 56.9538 27.9837 56.9439 28.6719 57.1405C29.3602 57.3371 29.9633 57.7301 30.3947 58.2632C31.1053 58.0538 31.8055 57.816 32.5263 57.6066C32.5164 57.9258 32.4299 58.2391 32.2732 58.5237C32.1165 58.8084 31.8935 59.0574 31.6201 59.2528C31.8726 59.2788 32.1281 59.2511 32.3673 59.172C32.6064 59.0928 32.8228 58.9642 33 58.7961C32.901 59.2099 32.6999 59.597 32.4123 59.9271C32.1247 60.2572 31.7585 60.5214 31.3421 60.6992C31.095 66.9699 27.9748 71.1662 20.6533 70.9949H20.1487C19.7059 70.9949 15.7311 70.5667 15 69.2441C16.752 69.4899 18.5389 69.0976 19.984 68.1498C18.9542 67.8643 17.1316 67.7026 16.8227 65.4093C17.2108 65.5434 17.6321 65.5731 18.0378 65.495C16.7609 64.7052 15.3398 64.0391 15.4222 61.9933C15.8196 62.2988 16.3269 62.4551 16.8432 62.431C16.1018 62.2026 14.7529 59.3099 15.8959 57.8255C17.8215 59.5478 19.8604 61.1749 23.4851 61.3367C23.7117 59.2052 24.6899 57.7779 26.5641 57.1689Z" fill="#D22856"/>
</svg>
