<svg width="50" height="166" viewBox="0 0 50 166" fill="none" xmlns="http://www.w3.org/2000/svg">
<path d="M1.13659 0.00020839C0.986512 -0.00251551 0.837358 0.0214885 0.698091 0.0707781C0.558823 0.120068 0.432317 0.193625 0.326173 0.28703C0.22003 0.380436 0.136442 0.49176 0.0804303 0.614315C0.024419 0.73687 -0.00285856 0.868124 0.000236809 1.00019V3.00016C0.000236809 3.26537 0.119959 3.51972 0.333067 3.70725C0.546174 3.89478 0.83521 4.00014 1.13659 4.00014H48.8634C49.0135 4.00286 49.1626 3.97886 49.3019 3.92957C49.4412 3.88028 49.5677 3.80672 49.6738 3.71332C49.78 3.61991 49.8636 3.50859 49.9196 3.38603C49.9756 3.26348 50.0029 3.13222 49.9998 3.00016V1.00019C49.9998 0.734979 49.88 0.48063 49.6669 0.293097C49.4538 0.105563 49.1648 0.00020839 48.8634 0.00020839H1.13659ZM1.13659 10C0.986512 9.99731 0.837358 10.0213 0.698091 10.0706C0.558823 10.1199 0.432317 10.1935 0.326173 10.2869C0.22003 10.3803 0.136442 10.4916 0.0804303 10.6141C0.024419 10.7367 -0.00285856 10.868 0.000236809 11V13C0.000236809 13.2652 0.119959 13.5195 0.333067 13.7071C0.546174 13.8946 0.83521 14 1.13659 14H48.8634C49.0135 14.0027 49.1626 13.9787 49.3019 13.9294C49.4412 13.8801 49.5677 13.8065 49.6738 13.7131C49.78 13.6197 49.8636 13.5084 49.9196 13.3859C49.9756 13.2633 50.0029 13.132 49.9998 13V11C49.9998 10.7348 49.88 10.4805 49.6669 10.2929C49.4538 10.1054 49.1648 10 48.8634 10H1.13659ZM1.13659 19.9999C0.986512 19.9971 0.837358 20.0211 0.698091 20.0704C0.558823 20.1197 0.432317 20.1933 0.326173 20.2867C0.22003 20.3801 0.136442 20.4914 0.0804303 20.614C0.024419 20.7365 -0.00285856 20.8678 0.000236809 20.9998V22.9998C0.000236809 23.265 0.119959 23.5194 0.333067 23.7069C0.546174 23.8944 0.83521 23.9998 1.13659 23.9998H48.8634C49.0135 24.0025 49.1626 23.9785 49.3019 23.9292C49.4412 23.8799 49.5677 23.8064 49.6738 23.713C49.78 23.6196 49.8636 23.5082 49.9196 23.3857C49.9756 23.2631 50.0029 23.1319 49.9998 22.9998V20.9998C49.9998 20.7346 49.88 20.4803 49.6669 20.2927C49.4538 20.1052 49.1648 19.9999 48.8634 19.9999H1.13659Z" fill="white"/>
<path opacity="0.3" d="M1.13659 58.0002C0.986512 57.9975 0.837358 58.0215 0.698091 58.0708C0.558823 58.1201 0.432317 58.1936 0.326173 58.287C0.22003 58.3804 0.136442 58.4918 0.0804303 58.6143C0.024419 58.7369 -0.00285856 58.8681 0.000236809 59.0002V61.0002C0.000236809 61.2654 0.119959 61.5197 0.333067 61.7073C0.546174 61.8948 0.83521 62.0001 1.13659 62.0001H48.8634C49.0135 62.0029 49.1626 61.9789 49.3019 61.9296C49.4412 61.8803 49.5677 61.8067 49.6738 61.7133C49.78 61.6199 49.8636 61.5086 49.9196 61.386C49.9756 61.2635 50.0029 61.1322 49.9998 61.0002V59.0002C49.9998 58.735 49.88 58.4806 49.6669 58.2931C49.4538 58.1056 49.1648 58.0002 48.8634 58.0002H1.13659ZM1.13659 68C0.986512 67.9973 0.837358 68.0213 0.698091 68.0706C0.558823 68.1199 0.432317 68.1935 0.326173 68.2869C0.22003 68.3803 0.136442 68.4916 0.0804303 68.6141C0.024419 68.7367 -0.00285856 68.868 0.000236809 69V71C0.000236809 71.2652 0.119959 71.5195 0.333067 71.7071C0.546174 71.8946 0.83521 72 1.13659 72H48.8634C49.0135 72.0027 49.1626 71.9787 49.3019 71.9294C49.4412 71.8801 49.5677 71.8065 49.6738 71.7131C49.78 71.6197 49.8636 71.5084 49.9196 71.3859C49.9756 71.2633 50.0029 71.132 49.9998 71V69C49.9998 68.7348 49.88 68.4805 49.6669 68.2929C49.4538 68.1054 49.1648 68 48.8634 68H1.13659ZM1.13659 77.9999C0.986512 77.9971 0.837358 78.0211 0.698091 78.0704C0.558823 78.1197 0.432317 78.1933 0.326173 78.2867C0.22003 78.3801 0.136442 78.4914 0.0804303 78.614C0.024419 78.7365 -0.00285856 78.8678 0.000236809 78.9998V80.9998C0.000236809 81.265 0.119959 81.5194 0.333067 81.7069C0.546174 81.8944 0.83521 81.9998 1.13659 81.9998H48.8634C49.0135 82.0025 49.1626 81.9785 49.3019 81.9292C49.4412 81.8799 49.5677 81.8064 49.6738 81.713C49.78 81.6196 49.8636 81.5082 49.9196 81.3857C49.9756 81.2631 50.0029 81.1319 49.9998 80.9998V78.9998C49.9998 78.7346 49.88 78.4803 49.6669 78.2927C49.4538 78.1052 49.1648 77.9999 48.8634 77.9999H1.13659Z" fill="#D22856"/>
<path d="M1.13659 29.0002C0.986512 28.9975 0.837358 29.0215 0.698091 29.0708C0.558823 29.1201 0.432317 29.1936 0.326173 29.287C0.22003 29.3804 0.136442 29.4918 0.0804303 29.6143C0.024419 29.7369 -0.00285856 29.8681 0.000236809 30.0002V32.0002C0.000236809 32.2654 0.119959 32.5197 0.333067 32.7073C0.546174 32.8948 0.83521 33.0001 1.13659 33.0001H48.8634C49.0135 33.0029 49.1626 32.9789 49.3019 32.9296C49.4412 32.8803 49.5677 32.8067 49.6738 32.7133C49.78 32.6199 49.8636 32.5086 49.9196 32.386C49.9756 32.2635 50.0029 32.1322 49.9998 32.0002V30.0002C49.9998 29.735 49.88 29.4806 49.6669 29.2931C49.4538 29.1056 49.1648 29.0002 48.8634 29.0002H1.13659ZM1.13659 39C0.986512 38.9973 0.837358 39.0213 0.698091 39.0706C0.558823 39.1199 0.432317 39.1935 0.326173 39.2869C0.22003 39.3803 0.136442 39.4916 0.0804303 39.6141C0.024419 39.7367 -0.00285856 39.868 0.000236809 40V42C0.000236809 42.2652 0.119959 42.5195 0.333067 42.7071C0.546174 42.8946 0.83521 43 1.13659 43H48.8634C49.0135 43.0027 49.1626 42.9787 49.3019 42.9294C49.4412 42.8801 49.5677 42.8065 49.6738 42.7131C49.78 42.6197 49.8636 42.5084 49.9196 42.3859C49.9756 42.2633 50.0029 42.132 49.9998 42V40C49.9998 39.7348 49.88 39.4805 49.6669 39.2929C49.4538 39.1054 49.1648 39 48.8634 39H1.13659ZM1.13659 48.9999C0.986512 48.9971 0.837358 49.0211 0.698091 49.0704C0.558823 49.1197 0.432317 49.1933 0.326173 49.2867C0.22003 49.3801 0.136442 49.4914 0.0804303 49.614C0.024419 49.7365 -0.00285856 49.8678 0.000236809 49.9998V51.9998C0.000236809 52.265 0.119959 52.5194 0.333067 52.7069C0.546174 52.8944 0.83521 52.9998 1.13659 52.9998H48.8634C49.0135 53.0025 49.1626 52.9785 49.3019 52.9292C49.4412 52.8799 49.5677 52.8064 49.6738 52.713C49.78 52.6196 49.8636 52.5082 49.9196 52.3857C49.9756 52.2631 50.0029 52.1319 49.9998 51.9998V49.9998C49.9998 49.7346 49.88 49.4803 49.6669 49.2927C49.4538 49.1052 49.1648 48.9999 48.8634 48.9999H1.13659Z" fill="#D22856"/>
<path d="M20.8487 87L0 107.849L2.15131 110L23 89.1513L20.8487 87Z" fill="white"/>
<path d="M2.15131 87L0 89.1513L20.8487 110L23 107.849L2.15131 87Z" fill="white"/>
<path d="M20.8487 115L0 135.849L2.15131 138L23 117.151L20.8487 115Z" fill="#D22856"/>
<path d="M2.15131 115L0 117.151L20.8487 138L23 135.849L2.15131 115Z" fill="#D22856"/>
<g opacity="0.3">
<path d="M20.8487 143L0 163.849L2.15131 166L23 145.151L20.8487 143Z" fill="#D22856"/>
<path d="M2.15131 143L0 145.151L20.8487 166L23 163.849L2.15131 143Z" fill="#D22856"/>
</g>
</svg>
