<svg width="147" height="540" viewBox="0 0 147 540" fill="none" xmlns="http://www.w3.org/2000/svg">
<path fill-rule="evenodd" clip-rule="evenodd" d="M53.8917 6.58616L58.9302 27.7312C59.0013 27.9491 59.0184 28.1815 58.98 28.4078C58.9417 28.634 58.849 28.8472 58.7102 29.0284C58.5715 29.2096 58.3909 29.3532 58.1845 29.4465C57.978 29.5398 57.7522 29.58 57.5268 29.5635H53.5201C52.8298 35.3747 47.9494 39.8784 42.0315 39.8784C36.1136 39.8784 31.2332 35.3747 30.543 29.5635H28.5778C27.8869 35.442 22.9527 40 16.9685 40C10.9742 40 6.0335 35.4266 5.35571 29.5337H1.45014C1.22961 29.5445 1.00974 29.5015 0.808914 29.4082C0.608085 29.315 0.432119 29.1743 0.295711 28.9979C0.159304 28.8214 0.0664152 28.6144 0.0248022 28.3941C-0.0168108 28.1737 -0.00593994 27.9464 0.0565069 27.7312L5.10477 6.58616C5.45562 4.25872 7.63865 0 13.4861 0C13.8738 0 14.2456 0.156518 14.5197 0.435122C14.7939 0.713727 14.9479 1.0916 14.9479 1.4856C14.9479 1.87961 14.7939 2.25748 14.5197 2.53608C14.2456 2.81468 13.8738 2.9712 13.4861 2.9712C8.7789 2.9712 8.04797 6.6654 7.9895 7.07146L3.3408 26.6022H5.37467C6.12089 20.7847 11.0272 16.2918 16.9685 16.2918C22.9066 16.2918 27.8107 20.7798 28.5611 26.5926L30.5587 26.6017C31.3043 20.8518 36.1567 16.4134 42.0315 16.4134C47.9178 16.4134 52.7776 20.8691 53.5086 26.6353V26.5824H55.6459L51.007 7.07146C50.9387 6.6654 50.237 2.9712 45.5104 2.9712C45.1227 2.9712 44.7509 2.81468 44.4767 2.53608C44.2026 2.25748 44.0485 1.87961 44.0485 1.4856C44.0485 1.0916 44.2026 0.713727 44.4767 0.435122C44.7509 0.156518 45.1227 0 45.5104 0C51.3578 0 53.5408 4.25872 53.8917 6.58616ZM25.6722 29.5635C25.7448 29.1018 25.7825 28.6283 25.7825 28.1459C25.7825 27.6164 25.7371 27.0977 25.65 26.5935C24.9252 22.3982 21.3141 19.2097 16.9685 19.2097C12.6203 19.2097 9.00753 22.402 8.28571 26.601C8.19945 27.1028 8.15447 27.619 8.15447 28.1459C8.15447 28.6205 8.19096 29.0864 8.26125 29.541C8.92191 33.8136 12.5687 37.0821 16.9685 37.0821C21.3605 37.0821 25.0023 33.8251 25.6722 29.5635ZM50.6138 29.5635C50.6874 29.102 50.7256 28.6285 50.7256 28.1459C50.7256 23.2777 46.8331 19.3313 42.0315 19.3313C37.2299 19.3313 33.3374 23.2777 33.3374 28.1459C33.3374 28.6285 33.3756 29.102 33.4492 29.5635C34.118 33.7577 37.7058 36.9605 42.0315 36.9605C46.3572 36.9605 49.945 33.7577 50.6138 29.5635Z" fill="white"/>
<path d="M71.005 18.5486C71.0049 18.2125 71.1358 17.8898 71.3697 17.6494C71.6037 17.409 71.9221 17.2701 72.2568 17.2623H79.39C84.4469 17.2623 87.7751 19.9645 87.7751 24.3918V24.4516C87.7751 29.2977 83.7415 31.8105 78.9727 31.8105H73.5384V38.611C73.5539 38.7874 73.5328 38.9651 73.4762 39.1329C73.4196 39.3006 73.3289 39.4547 73.2097 39.5854C73.0906 39.716 72.9457 39.8204 72.7842 39.8918C72.6227 39.9631 72.4481 40 72.2717 40C72.0952 40 71.9207 39.9631 71.7592 39.8918C71.5977 39.8204 71.4527 39.716 71.3336 39.5854C71.2145 39.4547 71.1237 39.3006 71.0671 39.1329C71.0106 38.9651 70.9894 38.7874 71.005 38.611V18.5486ZM79.0721 29.5171C82.7778 29.5171 85.2119 27.5228 85.2119 24.5314V24.4716C85.2119 21.2608 82.8175 19.5956 79.2509 19.5956H73.588V29.4772L79.0721 29.5171Z" fill="white"/>
<path d="M92.5935 18.389C92.5779 18.2126 92.5991 18.0349 92.6556 17.8671C92.7122 17.6994 92.803 17.5452 92.9221 17.4146C93.0412 17.2839 93.1862 17.1796 93.3477 17.1082C93.5092 17.0369 93.6837 17 93.8602 17C94.0366 17 94.2112 17.0369 94.3727 17.1082C94.5342 17.1796 94.6791 17.2839 94.7982 17.4146C94.9174 17.5452 95.0081 17.6994 95.0647 17.8671C95.1213 18.0349 95.1425 18.2126 95.1269 18.389V38.611C95.1425 38.7874 95.1213 38.9651 95.0647 39.1329C95.0081 39.3006 94.9174 39.4548 94.7982 39.5854C94.6791 39.7161 94.5342 39.8204 94.3727 39.8918C94.2112 39.9631 94.0366 40 93.8602 40C93.6837 40 93.5092 39.9631 93.3477 39.8918C93.1862 39.8204 93.0412 39.7161 92.9221 39.5854C92.803 39.4548 92.7122 39.3006 92.6556 39.1329C92.5991 38.9651 92.5779 38.7874 92.5935 38.611V18.389Z" fill="white"/>
<path d="M101.674 18.419C101.682 18.0891 101.816 17.775 102.05 17.5426C102.283 17.3102 102.597 17.1776 102.926 17.1725H103.273C103.532 17.1778 103.784 17.2482 104.008 17.3771C104.232 17.5061 104.42 17.6894 104.555 17.9104L118.156 35.3104V18.3591C118.156 18.0312 118.286 17.7167 118.517 17.4848C118.748 17.2529 119.061 17.1227 119.388 17.1227C119.715 17.1227 120.028 17.2529 120.259 17.4848C120.49 17.7167 120.62 18.0312 120.62 18.3591V38.6508C120.625 38.8051 120.599 38.9589 120.544 39.1028C120.488 39.2467 120.403 39.3777 120.296 39.4878C120.188 39.5979 120.059 39.6848 119.916 39.7432C119.774 39.8016 119.621 39.8303 119.467 39.8275H119.338C119.074 39.8092 118.818 39.7294 118.591 39.5944C118.363 39.4593 118.17 39.2728 118.027 39.0497L104.118 21.2408V38.6508C104.116 38.9722 103.991 39.2805 103.769 39.5124C103.547 39.7442 103.246 39.882 102.926 39.8973C102.601 39.892 102.291 39.7581 102.064 39.5246C101.837 39.2911 101.711 38.9771 101.714 38.6508V18.419H101.674Z" fill="white"/>
<path d="M126.938 18.389C126.923 18.2126 126.944 18.0349 127.001 17.8671C127.057 17.6994 127.148 17.5452 127.267 17.4146C127.386 17.2839 127.531 17.1796 127.693 17.1082C127.854 17.0369 128.029 17 128.205 17C128.382 17 128.556 17.0369 128.718 17.1082C128.879 17.1796 129.024 17.2839 129.143 17.4146C129.262 17.5452 129.353 17.6994 129.41 17.8671C129.466 18.0349 129.487 18.2126 129.472 18.389V30.6837L142.228 17.5514C142.49 17.2797 142.845 17.1191 143.222 17.1027C143.547 17.1155 143.855 17.2528 144.082 17.4865C144.309 17.7202 144.439 18.0325 144.444 18.3591C144.437 18.529 144.396 18.6957 144.325 18.8498C144.253 19.0038 144.152 19.1421 144.026 19.2565L136.078 27.1539L144.652 37.6836C144.876 37.9441 145 38.2768 145 38.6209C144.996 38.7933 144.958 38.9633 144.889 39.121C144.819 39.2786 144.719 39.4209 144.594 39.5395C144.47 39.6582 144.323 39.7509 144.162 39.8123C144.002 39.8737 143.831 39.9026 143.659 39.8973C143.459 39.8891 143.264 39.8322 143.091 39.7314C142.918 39.6306 142.772 39.4891 142.665 39.3189L134.3 28.859L129.472 33.7051V38.591C129.472 38.7573 129.439 38.922 129.376 39.0756C129.312 39.2293 129.219 39.3689 129.102 39.4865C128.985 39.6041 128.846 39.6973 128.693 39.761C128.54 39.8246 128.376 39.8574 128.21 39.8574C128.044 39.8574 127.88 39.8246 127.727 39.761C127.574 39.6973 127.435 39.6041 127.318 39.4865C127.201 39.3689 127.108 39.2293 127.044 39.0756C126.981 38.922 126.948 38.7573 126.948 38.591V18.389H126.938Z" fill="white"/>
<g opacity="0.3">
<path fill-rule="evenodd" clip-rule="evenodd" d="M53.8917 106.586L58.9302 127.731C59.0013 127.949 59.0184 128.182 58.98 128.408C58.9417 128.634 58.849 128.847 58.7102 129.028C58.5715 129.21 58.3909 129.353 58.1845 129.447C57.978 129.54 57.7522 129.58 57.5268 129.563H53.5201C52.8298 135.375 47.9494 139.878 42.0315 139.878C36.1136 139.878 31.2332 135.375 30.543 129.563H28.5778C27.8869 135.442 22.9527 140 16.9685 140C10.9742 140 6.0335 135.427 5.35571 129.534H1.45014C1.22961 129.544 1.00974 129.501 0.808914 129.408C0.608085 129.315 0.432119 129.174 0.295711 128.998C0.159304 128.821 0.0664152 128.614 0.0248022 128.394C-0.0168108 128.174 -0.00593994 127.946 0.0565069 127.731L5.10477 106.586C5.45562 104.259 7.63865 100 13.4861 100C13.8738 100 14.2456 100.157 14.5197 100.435C14.7939 100.714 14.9479 101.092 14.9479 101.486C14.9479 101.88 14.7939 102.257 14.5197 102.536C14.2456 102.815 13.8738 102.971 13.4861 102.971C8.7789 102.971 8.04797 106.665 7.9895 107.071L3.3408 126.602H5.37467C6.12089 120.785 11.0272 116.292 16.9685 116.292C22.9066 116.292 27.8107 120.78 28.5611 126.593L30.5587 126.602C31.3043 120.852 36.1567 116.413 42.0315 116.413C47.9178 116.413 52.7776 120.869 53.5086 126.635V126.582H55.6459L51.007 107.071C50.9387 106.665 50.237 102.971 45.5104 102.971C45.1227 102.971 44.7509 102.815 44.4767 102.536C44.2026 102.257 44.0485 101.88 44.0485 101.486C44.0485 101.092 44.2026 100.714 44.4767 100.435C44.7509 100.157 45.1227 100 45.5104 100C51.3578 100 53.5408 104.259 53.8917 106.586ZM25.6722 129.563C25.7448 129.102 25.7825 128.628 25.7825 128.146C25.7825 127.616 25.7371 127.098 25.65 126.593C24.9252 122.398 21.3141 119.21 16.9685 119.21C12.6203 119.21 9.00753 122.402 8.28571 126.601C8.19945 127.103 8.15447 127.619 8.15447 128.146C8.15447 128.62 8.19096 129.086 8.26125 129.541C8.92191 133.814 12.5687 137.082 16.9685 137.082C21.3605 137.082 25.0023 133.825 25.6722 129.563ZM50.6138 129.563C50.6874 129.102 50.7256 128.628 50.7256 128.146C50.7256 123.278 46.8331 119.331 42.0315 119.331C37.2299 119.331 33.3374 123.278 33.3374 128.146C33.3374 128.628 33.3756 129.102 33.4492 129.563C34.118 133.758 37.7058 136.96 42.0315 136.96C46.3572 136.96 49.945 133.758 50.6138 129.563Z" fill="white"/>
<path d="M71.005 118.549C71.0049 118.213 71.1358 117.89 71.3697 117.649C71.6037 117.409 71.9221 117.27 72.2568 117.262H79.39C84.4469 117.262 87.7751 119.965 87.7751 124.392V124.452C87.7751 129.298 83.7415 131.81 78.9727 131.81H73.5384V138.611C73.5539 138.787 73.5328 138.965 73.4762 139.133C73.4196 139.301 73.3289 139.455 73.2097 139.585C73.0906 139.716 72.9457 139.82 72.7842 139.892C72.6227 139.963 72.4481 140 72.2717 140C72.0952 140 71.9207 139.963 71.7592 139.892C71.5977 139.82 71.4527 139.716 71.3336 139.585C71.2145 139.455 71.1237 139.301 71.0671 139.133C71.0106 138.965 70.9894 138.787 71.005 138.611V118.549ZM79.0721 129.517C82.7778 129.517 85.2119 127.523 85.2119 124.531V124.472C85.2119 121.261 82.8175 119.596 79.2509 119.596H73.588V129.477L79.0721 129.517Z" fill="white"/>
<path d="M92.5935 118.389C92.5779 118.213 92.5991 118.035 92.6556 117.867C92.7122 117.699 92.803 117.545 92.9221 117.415C93.0412 117.284 93.1862 117.18 93.3477 117.108C93.5092 117.037 93.6837 117 93.8602 117C94.0366 117 94.2112 117.037 94.3727 117.108C94.5342 117.18 94.6791 117.284 94.7982 117.415C94.9174 117.545 95.0081 117.699 95.0647 117.867C95.1213 118.035 95.1425 118.213 95.1269 118.389V138.611C95.1425 138.787 95.1213 138.965 95.0647 139.133C95.0081 139.301 94.9174 139.455 94.7982 139.585C94.6791 139.716 94.5342 139.82 94.3727 139.892C94.2112 139.963 94.0366 140 93.8602 140C93.6837 140 93.5092 139.963 93.3477 139.892C93.1862 139.82 93.0412 139.716 92.9221 139.585C92.803 139.455 92.7122 139.301 92.6556 139.133C92.5991 138.965 92.5779 138.787 92.5935 138.611V118.389Z" fill="white"/>
<path d="M101.674 118.419C101.682 118.089 101.816 117.775 102.05 117.543C102.283 117.31 102.597 117.178 102.926 117.173H103.273C103.532 117.178 103.784 117.248 104.008 117.377C104.232 117.506 104.42 117.689 104.555 117.91L118.156 135.31V118.359C118.156 118.031 118.286 117.717 118.517 117.485C118.748 117.253 119.061 117.123 119.388 117.123C119.715 117.123 120.028 117.253 120.259 117.485C120.49 117.717 120.62 118.031 120.62 118.359V138.651C120.625 138.805 120.599 138.959 120.544 139.103C120.488 139.247 120.403 139.378 120.296 139.488C120.188 139.598 120.059 139.685 119.916 139.743C119.774 139.802 119.621 139.83 119.467 139.827H119.338C119.074 139.809 118.818 139.729 118.591 139.594C118.363 139.459 118.17 139.273 118.027 139.05L104.118 121.241V138.651C104.116 138.972 103.991 139.281 103.769 139.512C103.547 139.744 103.246 139.882 102.926 139.897C102.601 139.892 102.291 139.758 102.064 139.525C101.837 139.291 101.711 138.977 101.714 138.651V118.419H101.674Z" fill="white"/>
<path d="M126.938 118.389C126.923 118.213 126.944 118.035 127.001 117.867C127.057 117.699 127.148 117.545 127.267 117.415C127.386 117.284 127.531 117.18 127.693 117.108C127.854 117.037 128.029 117 128.205 117C128.382 117 128.556 117.037 128.718 117.108C128.879 117.18 129.024 117.284 129.143 117.415C129.262 117.545 129.353 117.699 129.41 117.867C129.466 118.035 129.487 118.213 129.472 118.389V130.684L142.228 117.551C142.49 117.28 142.845 117.119 143.222 117.103C143.547 117.115 143.855 117.253 144.082 117.487C144.309 117.72 144.439 118.033 144.444 118.359C144.437 118.529 144.396 118.696 144.325 118.85C144.253 119.004 144.152 119.142 144.026 119.257L136.078 127.154L144.652 137.684C144.876 137.944 145 138.277 145 138.621C144.996 138.793 144.958 138.963 144.889 139.121C144.819 139.279 144.719 139.421 144.594 139.54C144.47 139.658 144.323 139.751 144.162 139.812C144.002 139.874 143.831 139.903 143.659 139.897C143.459 139.889 143.264 139.832 143.091 139.731C142.918 139.631 142.772 139.489 142.665 139.319L134.3 128.859L129.472 133.705V138.591C129.472 138.757 129.439 138.922 129.376 139.076C129.312 139.229 129.219 139.369 129.102 139.486C128.985 139.604 128.846 139.697 128.693 139.761C128.54 139.825 128.376 139.857 128.21 139.857C128.044 139.857 127.88 139.825 127.727 139.761C127.574 139.697 127.435 139.604 127.318 139.486C127.201 139.369 127.108 139.229 127.044 139.076C126.981 138.922 126.948 138.757 126.948 138.591V118.389H126.938Z" fill="white"/>
</g>
<path fill-rule="evenodd" clip-rule="evenodd" d="M53.8917 56.5862L58.9302 77.7312C59.0013 77.9491 59.0184 78.1815 58.98 78.4078C58.9417 78.634 58.849 78.8472 58.7102 79.0284C58.5715 79.2096 58.3909 79.3532 58.1845 79.4465C57.978 79.5398 57.7522 79.58 57.5268 79.5635H53.5201C52.8298 85.3747 47.9494 89.8784 42.0315 89.8784C36.1136 89.8784 31.2332 85.3747 30.543 79.5635H28.5778C27.8869 85.442 22.9527 90 16.9685 90C10.9742 90 6.0335 85.4266 5.35571 79.5337H1.45014C1.22961 79.5445 1.00974 79.5015 0.808914 79.4082C0.608085 79.315 0.432119 79.1743 0.295711 78.9979C0.159304 78.8214 0.0664152 78.6144 0.0248022 78.3941C-0.0168108 78.1737 -0.00593994 77.9464 0.0565069 77.7312L5.10477 56.5862C5.45562 54.2587 7.63865 50 13.4861 50C13.8738 50 14.2456 50.1565 14.5197 50.4351C14.7939 50.7137 14.9479 51.0916 14.9479 51.4856C14.9479 51.8796 14.7939 52.2575 14.5197 52.5361C14.2456 52.8147 13.8738 52.9712 13.4861 52.9712C8.7789 52.9712 8.04797 56.6654 7.9895 57.0715L3.3408 76.6022H5.37467C6.12089 70.7847 11.0272 66.2918 16.9685 66.2918C22.9066 66.2918 27.8107 70.7798 28.5611 76.5926L30.5587 76.6017C31.3043 70.8518 36.1567 66.4134 42.0315 66.4134C47.9178 66.4134 52.7776 70.8691 53.5086 76.6353V76.5824H55.6459L51.007 57.0715C50.9387 56.6654 50.237 52.9712 45.5104 52.9712C45.1227 52.9712 44.7509 52.8147 44.4767 52.5361C44.2026 52.2575 44.0485 51.8796 44.0485 51.4856C44.0485 51.0916 44.2026 50.7137 44.4767 50.4351C44.7509 50.1565 45.1227 50 45.5104 50C51.3578 50 53.5408 54.2587 53.8917 56.5862ZM25.6722 79.5635C25.7448 79.1018 25.7825 78.6283 25.7825 78.1459C25.7825 77.6164 25.7371 77.0977 25.65 76.5935C24.9252 72.3982 21.3141 69.2097 16.9685 69.2097C12.6203 69.2097 9.00753 72.402 8.28571 76.601C8.19945 77.1028 8.15447 77.619 8.15447 78.1459C8.15447 78.6205 8.19096 79.0864 8.26125 79.541C8.92191 83.8136 12.5687 87.0821 16.9685 87.0821C21.3605 87.0821 25.0023 83.8251 25.6722 79.5635ZM50.6138 79.5635C50.6874 79.102 50.7256 78.6285 50.7256 78.1459C50.7256 73.2777 46.8331 69.3313 42.0315 69.3313C37.2299 69.3313 33.3374 73.2777 33.3374 78.1459C33.3374 78.6285 33.3756 79.102 33.4492 79.5635C34.118 83.7577 37.7058 86.9605 42.0315 86.9605C46.3572 86.9605 49.945 83.7577 50.6138 79.5635Z" fill="#D22856"/>
<path d="M71.005 68.5486C71.0049 68.2125 71.1358 67.8898 71.3697 67.6494C71.6037 67.409 71.9221 67.2701 72.2568 67.2623H79.39C84.4469 67.2623 87.7751 69.9645 87.7751 74.3918V74.4516C87.7751 79.2977 83.7415 81.8105 78.9727 81.8105H73.5384V88.611C73.5539 88.7874 73.5328 88.9651 73.4762 89.1329C73.4196 89.3006 73.3289 89.4547 73.2097 89.5854C73.0906 89.716 72.9457 89.8204 72.7842 89.8918C72.6227 89.9631 72.4481 90 72.2717 90C72.0952 90 71.9207 89.9631 71.7592 89.8918C71.5977 89.8204 71.4527 89.716 71.3336 89.5854C71.2145 89.4547 71.1237 89.3006 71.0671 89.1329C71.0106 88.9651 70.9894 88.7874 71.005 88.611V68.5486ZM79.0721 79.5171C82.7778 79.5171 85.2119 77.5228 85.2119 74.5314V74.4716C85.2119 71.2608 82.8175 69.5956 79.2509 69.5956H73.588V79.4772L79.0721 79.5171Z" fill="#D22856"/>
<path d="M92.5935 68.389C92.5779 68.2126 92.5991 68.0349 92.6556 67.8671C92.7122 67.6994 92.803 67.5452 92.9221 67.4146C93.0412 67.2839 93.1862 67.1796 93.3477 67.1082C93.5092 67.0369 93.6837 67 93.8602 67C94.0366 67 94.2112 67.0369 94.3727 67.1082C94.5342 67.1796 94.6791 67.2839 94.7982 67.4146C94.9174 67.5452 95.0081 67.6994 95.0647 67.8671C95.1213 68.0349 95.1425 68.2126 95.1269 68.389V88.611C95.1425 88.7874 95.1213 88.9651 95.0647 89.1329C95.0081 89.3006 94.9174 89.4548 94.7982 89.5854C94.6791 89.7161 94.5342 89.8204 94.3727 89.8918C94.2112 89.9631 94.0366 90 93.8602 90C93.6837 90 93.5092 89.9631 93.3477 89.8918C93.1862 89.8204 93.0412 89.7161 92.9221 89.5854C92.803 89.4548 92.7122 89.3006 92.6556 89.1329C92.5991 88.9651 92.5779 88.7874 92.5935 88.611V68.389Z" fill="#D22856"/>
<path d="M101.674 68.419C101.682 68.0891 101.816 67.775 102.05 67.5426C102.283 67.3102 102.597 67.1776 102.926 67.1725H103.273C103.532 67.1778 103.784 67.2482 104.008 67.3771C104.232 67.5061 104.42 67.6894 104.555 67.9104L118.156 85.3104V68.3591C118.156 68.0312 118.286 67.7167 118.517 67.4848C118.748 67.2529 119.061 67.1227 119.388 67.1227C119.715 67.1227 120.028 67.2529 120.259 67.4848C120.49 67.7167 120.62 68.0312 120.62 68.3591V88.6508C120.625 88.8051 120.599 88.9589 120.544 89.1028C120.488 89.2467 120.403 89.3777 120.296 89.4878C120.188 89.5979 120.059 89.6848 119.916 89.7432C119.774 89.8016 119.621 89.8303 119.467 89.8275H119.338C119.074 89.8092 118.818 89.7294 118.591 89.5944C118.363 89.4593 118.17 89.2728 118.027 89.0497L104.118 71.2408V88.6508C104.116 88.9722 103.991 89.2805 103.769 89.5124C103.547 89.7442 103.246 89.882 102.926 89.8973C102.601 89.892 102.291 89.7581 102.064 89.5246C101.837 89.2911 101.711 88.9771 101.714 88.6508V68.419H101.674Z" fill="#D22856"/>
<path d="M126.938 68.389C126.923 68.2126 126.944 68.0349 127.001 67.8671C127.057 67.6994 127.148 67.5452 127.267 67.4146C127.386 67.2839 127.531 67.1796 127.693 67.1082C127.854 67.0369 128.029 67 128.205 67C128.382 67 128.556 67.0369 128.718 67.1082C128.879 67.1796 129.024 67.2839 129.143 67.4146C129.262 67.5452 129.353 67.6994 129.41 67.8671C129.466 68.0349 129.487 68.2126 129.472 68.389V80.6837L142.228 67.5514C142.49 67.2797 142.845 67.1191 143.222 67.1027C143.547 67.1155 143.855 67.2528 144.082 67.4865C144.309 67.7202 144.439 68.0325 144.444 68.3591C144.437 68.529 144.396 68.6957 144.325 68.8498C144.253 69.0038 144.152 69.1421 144.026 69.2565L136.078 77.1539L144.652 87.6836C144.876 87.9441 145 88.2768 145 88.6209C144.996 88.7933 144.958 88.9633 144.889 89.121C144.819 89.2786 144.719 89.4209 144.594 89.5395C144.47 89.6582 144.323 89.7509 144.162 89.8123C144.002 89.8737 143.831 89.9026 143.659 89.8973C143.459 89.8891 143.264 89.8322 143.091 89.7314C142.918 89.6306 142.772 89.4891 142.665 89.3189L134.3 78.859L129.472 83.7051V88.591C129.472 88.7573 129.439 88.922 129.376 89.0756C129.312 89.2293 129.219 89.3689 129.102 89.4865C128.985 89.6041 128.846 89.6973 128.693 89.761C128.54 89.8246 128.376 89.8574 128.21 89.8574C128.044 89.8574 127.88 89.8246 127.727 89.761C127.574 89.6973 127.435 89.6041 127.318 89.4865C127.201 89.3689 127.108 89.2293 127.044 89.0756C126.981 88.922 126.948 88.7573 126.948 88.591V68.389H126.938Z" fill="#D22856"/>
<path d="M71.005 168.549C71.0049 168.213 71.1358 167.89 71.3697 167.649C71.6037 167.409 71.922 167.27 72.2568 167.262H79.39C84.4469 167.262 87.7751 169.965 87.7751 174.392V174.452C87.7751 179.298 83.7415 181.81 78.9727 181.81H73.5384V188.611C73.5539 188.787 73.5328 188.965 73.4762 189.133C73.4196 189.301 73.3289 189.455 73.2097 189.585C73.0906 189.716 72.9457 189.82 72.7842 189.892C72.6227 189.963 72.4481 190 72.2717 190C72.0952 190 71.9207 189.963 71.7592 189.892C71.5977 189.82 71.4527 189.716 71.3336 189.585C71.2145 189.455 71.1237 189.301 71.0671 189.133C71.0106 188.965 70.9894 188.787 71.005 188.611V168.549ZM79.0721 179.517C82.7778 179.517 85.2119 177.523 85.2119 174.531V174.472C85.2119 171.261 82.8175 169.596 79.2509 169.596H73.588V179.477L79.0721 179.517Z" fill="#283645"/>
<path d="M92.5935 168.389C92.5779 168.213 92.5991 168.035 92.6556 167.867C92.7122 167.699 92.803 167.545 92.9221 167.415C93.0412 167.284 93.1862 167.18 93.3477 167.108C93.5092 167.037 93.6837 167 93.8602 167C94.0366 167 94.2112 167.037 94.3727 167.108C94.5342 167.18 94.6791 167.284 94.7982 167.415C94.9174 167.545 95.0081 167.699 95.0647 167.867C95.1213 168.035 95.1425 168.213 95.1269 168.389V188.611C95.1425 188.787 95.1213 188.965 95.0647 189.133C95.0081 189.301 94.9174 189.455 94.7982 189.585C94.6791 189.716 94.5342 189.82 94.3727 189.892C94.2112 189.963 94.0366 190 93.8602 190C93.6837 190 93.5092 189.963 93.3477 189.892C93.1862 189.82 93.0412 189.716 92.9221 189.585C92.803 189.455 92.7122 189.301 92.6556 189.133C92.5991 188.965 92.5779 188.787 92.5935 188.611V168.389Z" fill="#283645"/>
<path d="M101.674 168.419C101.682 168.089 101.816 167.775 102.05 167.543C102.283 167.31 102.597 167.178 102.926 167.173H103.273C103.532 167.178 103.784 167.248 104.008 167.377C104.232 167.506 104.42 167.689 104.555 167.91L118.156 185.31V168.359C118.156 168.031 118.286 167.717 118.517 167.485C118.748 167.253 119.061 167.123 119.388 167.123C119.715 167.123 120.028 167.253 120.259 167.485C120.49 167.717 120.62 168.031 120.62 168.359V188.651C120.625 188.805 120.599 188.959 120.544 189.103C120.488 189.247 120.403 189.378 120.296 189.488C120.188 189.598 120.059 189.685 119.916 189.743C119.774 189.802 119.621 189.83 119.467 189.827H119.338C119.074 189.809 118.818 189.729 118.591 189.594C118.363 189.459 118.17 189.273 118.027 189.05L104.118 171.241V188.651C104.116 188.972 103.991 189.281 103.769 189.512C103.547 189.744 103.246 189.882 102.926 189.897C102.601 189.892 102.291 189.758 102.064 189.525C101.837 189.291 101.711 188.977 101.714 188.651V168.419H101.674Z" fill="#283645"/>
<path d="M126.938 168.389C126.923 168.213 126.944 168.035 127.001 167.867C127.057 167.699 127.148 167.545 127.267 167.415C127.386 167.284 127.531 167.18 127.693 167.108C127.854 167.037 128.029 167 128.205 167C128.382 167 128.556 167.037 128.718 167.108C128.879 167.18 129.024 167.284 129.143 167.415C129.262 167.545 129.353 167.699 129.41 167.867C129.466 168.035 129.487 168.213 129.472 168.389V180.684L142.228 167.551C142.49 167.28 142.845 167.119 143.222 167.103C143.547 167.115 143.855 167.253 144.082 167.487C144.309 167.72 144.439 168.033 144.444 168.359C144.437 168.529 144.396 168.696 144.325 168.85C144.253 169.004 144.152 169.142 144.026 169.257L136.078 177.154L144.652 187.684C144.876 187.944 145 188.277 145 188.621C144.996 188.793 144.958 188.963 144.889 189.121C144.819 189.279 144.719 189.421 144.594 189.54C144.47 189.658 144.323 189.751 144.162 189.812C144.002 189.874 143.831 189.903 143.659 189.897C143.459 189.889 143.264 189.832 143.091 189.731C142.918 189.631 142.772 189.489 142.665 189.319L134.3 178.859L129.472 183.705V188.591C129.472 188.757 129.439 188.922 129.376 189.076C129.312 189.229 129.219 189.369 129.102 189.486C128.985 189.604 128.846 189.697 128.693 189.761C128.54 189.825 128.376 189.857 128.21 189.857C128.044 189.857 127.88 189.825 127.727 189.761C127.574 189.697 127.435 189.604 127.318 189.486C127.201 189.369 127.108 189.229 127.044 189.076C126.981 188.922 126.948 188.757 126.948 188.591V168.389H126.938Z" fill="#283645"/>
<path fill-rule="evenodd" clip-rule="evenodd" d="M53.8917 156.586L58.9302 177.731C59.0013 177.949 59.0184 178.182 58.98 178.408C58.9417 178.634 58.849 178.847 58.7102 179.028C58.5715 179.21 58.3909 179.353 58.1845 179.447C57.978 179.54 57.7522 179.58 57.5268 179.563H53.5201C52.8298 185.375 47.9494 189.878 42.0315 189.878C36.1136 189.878 31.2332 185.375 30.543 179.563H28.5778C27.8869 185.442 22.9527 190 16.9685 190C10.9742 190 6.0335 185.427 5.35571 179.534H1.45014C1.22961 179.544 1.00974 179.501 0.808914 179.408C0.608085 179.315 0.432119 179.174 0.295711 178.998C0.159304 178.821 0.0664152 178.614 0.0248022 178.394C-0.0168108 178.174 -0.00593994 177.946 0.0565069 177.731L5.10477 156.586C5.45562 154.259 7.63865 150 13.4861 150C13.8738 150 14.2456 150.157 14.5197 150.435C14.7939 150.714 14.9479 151.092 14.9479 151.486C14.9479 151.88 14.7939 152.257 14.5197 152.536C14.2456 152.815 13.8738 152.971 13.4861 152.971C8.7789 152.971 8.04797 156.665 7.9895 157.071L3.3408 176.602H5.37467C6.12089 170.785 11.0272 166.292 16.9685 166.292C22.9066 166.292 27.8107 170.78 28.5611 176.593L30.5587 176.602C31.3043 170.852 36.1567 166.413 42.0315 166.413C47.9178 166.413 52.7776 170.869 53.5086 176.635V176.582H55.6459L51.007 157.071C50.9387 156.665 50.237 152.971 45.5104 152.971C45.1227 152.971 44.7509 152.815 44.4767 152.536C44.2026 152.257 44.0485 151.88 44.0485 151.486C44.0485 151.092 44.2026 150.714 44.4767 150.435C44.7509 150.157 45.1227 150 45.5104 150C51.3578 150 53.5408 154.259 53.8917 156.586ZM25.6722 179.563C25.7448 179.102 25.7825 178.628 25.7825 178.146C25.7825 177.616 25.7371 177.098 25.65 176.593C24.9252 172.398 21.3141 169.21 16.9685 169.21C12.6203 169.21 9.00753 172.402 8.28571 176.601C8.19945 177.103 8.15447 177.619 8.15447 178.146C8.15447 178.62 8.19096 179.086 8.26125 179.541C8.92191 183.814 12.5687 187.082 16.9685 187.082C21.3605 187.082 25.0023 183.825 25.6722 179.563ZM50.6138 179.563C50.6874 179.102 50.7256 178.628 50.7256 178.146C50.7256 173.278 46.8331 169.331 42.0315 169.331C37.2299 169.331 33.3374 173.278 33.3374 178.146C33.3374 178.628 33.3756 179.102 33.4492 179.563C34.118 183.758 37.7058 186.96 42.0315 186.96C46.3572 186.96 49.945 183.758 50.6138 179.563Z" fill="#D22856"/>
<g opacity="0.3">
<path d="M71.005 218.549C71.0049 218.213 71.1358 217.89 71.3697 217.649C71.6037 217.409 71.922 217.27 72.2568 217.262H79.39C84.4469 217.262 87.7751 219.965 87.7751 224.392V224.452C87.7751 229.298 83.7415 231.81 78.9727 231.81H73.5384V238.611C73.5539 238.787 73.5328 238.965 73.4762 239.133C73.4196 239.301 73.3289 239.455 73.2097 239.585C73.0906 239.716 72.9457 239.82 72.7842 239.892C72.6227 239.963 72.4481 240 72.2717 240C72.0952 240 71.9207 239.963 71.7592 239.892C71.5977 239.82 71.4527 239.716 71.3336 239.585C71.2145 239.455 71.1237 239.301 71.0671 239.133C71.0106 238.965 70.9894 238.787 71.005 238.611V218.549ZM79.0721 229.517C82.7778 229.517 85.2119 227.523 85.2119 224.531V224.472C85.2119 221.261 82.8175 219.596 79.2509 219.596H73.588V229.477L79.0721 229.517Z" fill="#283645"/>
<path d="M92.5935 218.389C92.5779 218.213 92.5991 218.035 92.6556 217.867C92.7122 217.699 92.803 217.545 92.9221 217.415C93.0412 217.284 93.1862 217.18 93.3477 217.108C93.5092 217.037 93.6837 217 93.8602 217C94.0366 217 94.2112 217.037 94.3727 217.108C94.5342 217.18 94.6791 217.284 94.7982 217.415C94.9174 217.545 95.0081 217.699 95.0647 217.867C95.1213 218.035 95.1425 218.213 95.1269 218.389V238.611C95.1425 238.787 95.1213 238.965 95.0647 239.133C95.0081 239.301 94.9174 239.455 94.7982 239.585C94.6791 239.716 94.5342 239.82 94.3727 239.892C94.2112 239.963 94.0366 240 93.8602 240C93.6837 240 93.5092 239.963 93.3477 239.892C93.1862 239.82 93.0412 239.716 92.9221 239.585C92.803 239.455 92.7122 239.301 92.6556 239.133C92.5991 238.965 92.5779 238.787 92.5935 238.611V218.389Z" fill="#283645"/>
<path d="M101.674 218.419C101.682 218.089 101.816 217.775 102.05 217.543C102.283 217.31 102.597 217.178 102.926 217.173H103.273C103.532 217.178 103.784 217.248 104.008 217.377C104.232 217.506 104.42 217.689 104.555 217.91L118.156 235.31V218.359C118.156 218.031 118.286 217.717 118.517 217.485C118.748 217.253 119.061 217.123 119.388 217.123C119.715 217.123 120.028 217.253 120.259 217.485C120.49 217.717 120.62 218.031 120.62 218.359V238.651C120.625 238.805 120.599 238.959 120.544 239.103C120.488 239.247 120.403 239.378 120.296 239.488C120.188 239.598 120.059 239.685 119.916 239.743C119.774 239.802 119.621 239.83 119.467 239.827H119.338C119.074 239.809 118.818 239.729 118.591 239.594C118.363 239.459 118.17 239.273 118.027 239.05L104.118 221.241V238.651C104.116 238.972 103.991 239.281 103.769 239.512C103.547 239.744 103.246 239.882 102.926 239.897C102.601 239.892 102.291 239.758 102.064 239.525C101.837 239.291 101.711 238.977 101.714 238.651V218.419H101.674Z" fill="#283645"/>
<path d="M126.938 218.389C126.923 218.213 126.944 218.035 127.001 217.867C127.057 217.699 127.148 217.545 127.267 217.415C127.386 217.284 127.531 217.18 127.693 217.108C127.854 217.037 128.029 217 128.205 217C128.382 217 128.556 217.037 128.718 217.108C128.879 217.18 129.024 217.284 129.143 217.415C129.262 217.545 129.353 217.699 129.41 217.867C129.466 218.035 129.487 218.213 129.472 218.389V230.684L142.228 217.551C142.49 217.28 142.845 217.119 143.222 217.103C143.547 217.115 143.855 217.253 144.082 217.487C144.309 217.72 144.439 218.033 144.444 218.359C144.437 218.529 144.396 218.696 144.325 218.85C144.253 219.004 144.152 219.142 144.026 219.257L136.078 227.154L144.652 237.684C144.876 237.944 145 238.277 145 238.621C144.996 238.793 144.958 238.963 144.889 239.121C144.819 239.279 144.719 239.421 144.594 239.54C144.47 239.658 144.323 239.751 144.162 239.812C144.002 239.874 143.831 239.903 143.659 239.897C143.459 239.889 143.264 239.832 143.091 239.731C142.918 239.631 142.772 239.489 142.665 239.319L134.3 228.859L129.472 233.705V238.591C129.472 238.757 129.439 238.922 129.376 239.076C129.312 239.229 129.219 239.369 129.102 239.486C128.985 239.604 128.846 239.697 128.693 239.761C128.54 239.825 128.376 239.857 128.21 239.857C128.044 239.857 127.88 239.825 127.727 239.761C127.574 239.697 127.435 239.604 127.318 239.486C127.201 239.369 127.108 239.229 127.044 239.076C126.981 238.922 126.948 238.757 126.948 238.591V218.389H126.938Z" fill="#283645"/>
<path fill-rule="evenodd" clip-rule="evenodd" d="M53.8917 206.586L58.9302 227.731C59.0013 227.949 59.0184 228.182 58.98 228.408C58.9417 228.634 58.849 228.847 58.7102 229.028C58.5715 229.21 58.3909 229.353 58.1845 229.447C57.978 229.54 57.7522 229.58 57.5268 229.563H53.5201C52.8298 235.375 47.9494 239.878 42.0315 239.878C36.1136 239.878 31.2332 235.375 30.543 229.563H28.5778C27.8869 235.442 22.9527 240 16.9685 240C10.9742 240 6.0335 235.427 5.35571 229.534H1.45014C1.22961 229.544 1.00974 229.501 0.808914 229.408C0.608085 229.315 0.432119 229.174 0.295711 228.998C0.159304 228.821 0.0664152 228.614 0.0248022 228.394C-0.0168108 228.174 -0.00593994 227.946 0.0565069 227.731L5.10477 206.586C5.45562 204.259 7.63865 200 13.4861 200C13.8738 200 14.2456 200.157 14.5197 200.435C14.7939 200.714 14.9479 201.092 14.9479 201.486C14.9479 201.88 14.7939 202.257 14.5197 202.536C14.2456 202.815 13.8738 202.971 13.4861 202.971C8.7789 202.971 8.04797 206.665 7.9895 207.071L3.3408 226.602H5.37467C6.12089 220.785 11.0272 216.292 16.9685 216.292C22.9066 216.292 27.8107 220.78 28.5611 226.593L30.5587 226.602C31.3043 220.852 36.1567 216.413 42.0315 216.413C47.9178 216.413 52.7776 220.869 53.5086 226.635V226.582H55.6459L51.007 207.071C50.9387 206.665 50.237 202.971 45.5104 202.971C45.1227 202.971 44.7509 202.815 44.4767 202.536C44.2026 202.257 44.0485 201.88 44.0485 201.486C44.0485 201.092 44.2026 200.714 44.4767 200.435C44.7509 200.157 45.1227 200 45.5104 200C51.3578 200 53.5408 204.259 53.8917 206.586ZM25.6722 229.563C25.7448 229.102 25.7825 228.628 25.7825 228.146C25.7825 227.616 25.7371 227.098 25.65 226.593C24.9252 222.398 21.3141 219.21 16.9685 219.21C12.6203 219.21 9.00753 222.402 8.28571 226.601C8.19945 227.103 8.15447 227.619 8.15447 228.146C8.15447 228.62 8.19096 229.086 8.26125 229.541C8.92191 233.814 12.5687 237.082 16.9685 237.082C21.3605 237.082 25.0023 233.825 25.6722 229.563ZM50.6138 229.563C50.6874 229.102 50.7256 228.628 50.7256 228.146C50.7256 223.278 46.8331 219.331 42.0315 219.331C37.2299 219.331 33.3374 223.278 33.3374 228.146C33.3374 228.628 33.3756 229.102 33.4492 229.563C34.118 233.758 37.7058 236.96 42.0315 236.96C46.3572 236.96 49.945 233.758 50.6138 229.563Z" fill="#D22856"/>
</g>
<path d="M72.1933 268.425C72.1932 268.092 72.3255 267.773 72.562 267.535C72.7985 267.296 73.1204 267.159 73.4588 267.151H80.6703C85.7826 267.151 89.1473 269.827 89.1473 274.211V274.27C89.1473 279.069 85.0695 281.557 80.2484 281.557H74.7544V288.291C74.7702 288.466 74.7488 288.642 74.6916 288.808C74.6344 288.974 74.5426 289.127 74.4222 289.256C74.3017 289.386 74.1552 289.489 73.992 289.56C73.8287 289.63 73.6522 289.667 73.4738 289.667C73.2954 289.667 73.119 289.63 72.9557 289.56C72.7925 289.489 72.6459 289.386 72.5255 289.256C72.405 289.127 72.3133 288.974 72.2561 288.808C72.1989 288.642 72.1775 288.466 72.1933 288.291V268.425ZM80.3489 279.286C84.0952 279.286 86.556 277.311 86.556 274.349V274.29C86.556 271.111 84.1354 269.462 80.5297 269.462H74.8047V279.247L80.3489 279.286Z" fill="white"/>
<path d="M94.0186 268.267C94.0028 268.092 94.0242 267.916 94.0814 267.75C94.1386 267.584 94.2304 267.431 94.3508 267.302C94.4713 267.173 94.6178 267.069 94.781 266.999C94.9443 266.928 95.1208 266.891 95.2992 266.891C95.4776 266.891 95.654 266.928 95.8173 266.999C95.9806 267.069 96.1271 267.173 96.2475 267.302C96.368 267.431 96.4597 267.584 96.5169 267.75C96.5741 267.916 96.5955 268.092 96.5798 268.267V288.291C96.5955 288.466 96.5741 288.642 96.5169 288.808C96.4597 288.974 96.368 289.127 96.2475 289.256C96.1271 289.386 95.9806 289.489 95.8173 289.56C95.654 289.63 95.4776 289.667 95.2992 289.667C95.1208 289.667 94.9443 289.63 94.781 289.56C94.6178 289.489 94.4713 289.386 94.3508 289.256C94.2304 289.127 94.1386 288.974 94.0814 288.808C94.0242 288.642 94.0028 288.466 94.0186 288.291V268.267Z" fill="white"/>
<path d="M103.199 268.296C103.206 267.97 103.343 267.659 103.579 267.429C103.814 267.199 104.132 267.067 104.464 267.062H104.816C105.077 267.067 105.332 267.137 105.559 267.265C105.785 267.393 105.975 267.574 106.111 267.793L119.861 285.023V268.237C119.861 267.913 119.993 267.601 120.226 267.371C120.46 267.142 120.777 267.013 121.107 267.013C121.437 267.013 121.754 267.142 121.988 267.371C122.221 267.601 122.352 267.913 122.352 268.237V288.331C122.358 288.484 122.332 288.636 122.275 288.778C122.219 288.921 122.134 289.051 122.025 289.16C121.916 289.269 121.785 289.355 121.641 289.413C121.497 289.47 121.343 289.499 121.187 289.496H121.057C120.79 289.478 120.531 289.399 120.301 289.265C120.071 289.131 119.876 288.947 119.731 288.726L105.669 271.091V288.331C105.667 288.649 105.541 288.954 105.317 289.184C105.093 289.414 104.788 289.55 104.464 289.565C104.136 289.56 103.822 289.427 103.593 289.196C103.363 288.965 103.236 288.654 103.239 288.331V268.296H103.199Z" fill="white"/>
<path d="M128.74 268.267C128.724 268.092 128.746 267.916 128.803 267.75C128.86 267.584 128.952 267.431 129.072 267.302C129.193 267.173 129.339 267.069 129.503 266.999C129.666 266.928 129.842 266.891 130.021 266.891C130.199 266.891 130.376 266.928 130.539 266.999C130.702 267.069 130.849 267.173 130.969 267.302C131.09 267.431 131.181 267.584 131.239 267.75C131.296 267.916 131.317 268.092 131.301 268.267V280.442L144.198 267.437C144.462 267.168 144.822 267.009 145.202 266.993C145.531 267.006 145.842 267.142 146.072 267.373C146.302 267.605 146.433 267.914 146.438 268.237C146.43 268.405 146.39 268.571 146.317 268.723C146.245 268.876 146.142 269.013 146.016 269.126L137.981 276.946L146.648 287.373C146.875 287.631 147 287.96 147 288.301C146.996 288.472 146.958 288.64 146.887 288.796C146.817 288.952 146.716 289.093 146.59 289.211C146.464 289.328 146.315 289.42 146.153 289.481C145.991 289.542 145.818 289.57 145.644 289.565C145.442 289.557 145.245 289.501 145.07 289.401C144.895 289.301 144.747 289.161 144.64 288.992L136.183 278.635L131.301 283.433V288.272C131.301 288.436 131.268 288.599 131.204 288.751C131.14 288.904 131.046 289.042 130.928 289.158C130.809 289.275 130.669 289.367 130.514 289.43C130.359 289.493 130.193 289.526 130.026 289.526C129.858 289.526 129.692 289.493 129.538 289.43C129.383 289.367 129.242 289.275 129.124 289.158C129.005 289.042 128.911 288.904 128.847 288.751C128.783 288.599 128.75 288.436 128.75 288.272V268.267H128.74Z" fill="white"/>
<path d="M98.9401 259.746C97.9749 259.746 97.0491 259.369 96.3656 258.699C95.6822 258.029 95.2969 257.12 95.2942 256.171C95.2942 257.119 94.9111 258.028 94.2293 258.699C93.5474 259.369 92.6226 259.746 91.6583 259.746C92.6235 259.748 93.5483 260.127 94.2299 260.799C94.9115 261.471 95.2942 262.381 95.2942 263.33C95.2969 262.38 95.6818 261.47 96.365 260.798C97.0482 260.127 97.974 259.748 98.9401 259.746V259.746Z" fill="#D22856"/>
<path d="M43.287 269.067C43.5381 269.067 43.7792 269.067 44.0202 269.067C43.8019 268.699 43.4897 268.393 43.1145 268.18C42.7393 267.967 42.3141 267.854 41.8809 267.852C41.4627 267.852 41.055 267.723 40.7147 267.484C40.3745 267.245 40.1185 266.908 39.9826 266.519C39.2588 266.724 38.5561 266.996 37.8834 267.329H38.0743C38.607 267.329 39.118 267.537 39.4947 267.907C39.8714 268.278 40.083 268.78 40.083 269.304C40.088 269.399 40.088 269.495 40.083 269.59C41.109 269.222 42.1953 269.045 43.287 269.067V269.067Z" fill="white"/>
<path d="M60.7332 277.647L55.5406 256.566C55.179 254.246 52.9291 250 46.9028 250C46.5033 250 46.1201 250.156 45.8375 250.434C45.555 250.712 45.3962 251.088 45.3962 251.481C45.3962 251.874 45.555 252.251 45.8375 252.528C46.1201 252.806 46.5033 252.962 46.9028 252.962C51.7741 252.962 52.4973 256.645 52.5676 257.05L57.3485 276.502H55.2493C55.0321 274.805 54.4439 273.174 53.525 271.722C52.6061 270.27 51.3783 269.031 49.926 268.089C49.4712 268.277 49.0829 268.593 48.8096 268.997C48.5363 269.401 48.3901 269.875 48.3893 270.36C48.3948 270.446 48.3948 270.531 48.3893 270.617C49.6107 271.44 50.6131 272.54 51.3122 273.824C52.0113 275.107 52.3867 276.537 52.4069 277.993C52.4008 278.489 52.3538 278.985 52.2663 279.474C51.9374 281.571 50.8559 283.484 49.2173 284.866C47.5786 286.247 45.4911 287.007 43.3322 287.007C41.1734 287.007 39.0859 286.247 37.4472 284.866C35.8086 283.484 34.727 281.571 34.3982 279.474C34.3107 278.985 34.2637 278.489 34.2576 277.993C34.2733 276.623 34.5993 275.274 35.2118 274.043C34.7037 274.008 34.2282 273.785 33.8814 273.418C33.5346 273.051 33.3424 272.569 33.3436 272.068C33.3453 271.889 33.277 271.716 33.1528 271.585C32.181 273.075 31.5662 274.763 31.3549 276.522H29.4868C29.1663 273.617 27.7658 270.932 25.5542 268.981C23.3427 267.03 20.4759 265.951 17.5044 265.951C14.5329 265.951 11.6662 267.03 9.45463 268.981C7.24307 270.932 5.84259 273.617 5.5221 276.522H3.44302L8.23394 257.05C8.29421 256.645 9.0475 252.962 13.8987 252.962C14.2983 252.962 14.6815 252.806 14.964 252.528C15.2465 252.251 15.4053 251.874 15.4053 251.481C15.4053 251.088 15.2465 250.712 14.964 250.434C14.6815 250.156 14.2983 250 13.8987 250C7.87236 250 5.62254 254.246 5.26096 256.566L0.0582358 277.647C-0.00612168 277.862 -0.0173251 278.088 0.0255611 278.308C0.0684473 278.528 0.164178 278.734 0.304759 278.91C0.44534 279.086 0.62669 279.226 0.833664 279.319C1.04064 279.412 1.26723 279.455 1.49451 279.444H5.51206C5.59378 280.055 5.72135 280.659 5.89372 281.251C5.95717 281.143 5.99172 281.021 5.99416 280.896C5.99416 280.372 6.2058 279.87 6.58252 279.499C6.95923 279.129 7.47017 278.921 8.00293 278.921C8.16603 278.923 8.32812 278.946 8.48504 278.99C8.44128 278.646 8.41781 278.3 8.41473 277.953C8.41742 277.457 8.46109 276.962 8.5453 276.472C8.86708 274.368 9.94626 272.447 11.5867 271.059C13.2271 269.67 15.3198 268.907 17.4843 268.907C19.6489 268.907 21.7416 269.67 23.382 271.059C25.0224 272.447 26.1016 274.368 26.4234 276.472C26.5076 276.962 26.5513 277.457 26.554 277.953C26.5382 280.305 25.5807 282.557 23.8889 284.22C22.1971 285.883 19.907 286.824 17.5145 286.84C15.5563 286.866 13.6424 286.267 12.0607 285.132C11.6982 285.441 11.235 285.613 10.755 285.615C10.5569 285.618 10.3679 285.697 10.2288 285.836C10.0897 285.974 10.0117 286.161 10.0117 286.356C10.009 286.632 9.94739 286.905 9.83092 287.156C11.9797 288.907 14.6835 289.864 17.4743 289.861C20.4223 289.874 23.2728 288.824 25.4864 286.909C27.7 284.995 29.1232 282.35 29.4868 279.474H31.3147C31.6456 282.369 33.0499 285.043 35.2593 286.985C37.4688 288.927 40.3285 290 43.2921 290C46.2557 290 49.1154 288.927 51.3248 286.985C53.5343 285.043 54.9385 282.369 55.2694 279.474H59.2869C59.5191 279.49 59.7519 279.45 59.9647 279.357C60.1774 279.264 60.3635 279.121 60.5065 278.94C60.6495 278.76 60.7451 278.547 60.7846 278.322C60.8241 278.096 60.8065 277.864 60.7332 277.647V277.647Z" fill="white"/>
<path d="M50.9203 265.917C50.3273 265.918 49.7398 265.804 49.1915 265.582C48.6432 265.36 48.1448 265.034 47.725 264.622C47.3052 264.21 46.9721 263.721 46.7448 263.182C46.5176 262.644 46.4006 262.066 46.4006 261.483C46.3979 262.66 45.9206 263.788 45.0733 264.619C44.2259 265.45 43.0778 265.917 41.8809 265.917C43.0788 265.919 44.2268 266.388 45.0739 267.221C45.9209 268.054 46.3979 269.183 46.4006 270.36C46.4006 269.182 46.8768 268.052 47.7244 267.218C48.572 266.385 49.7216 265.917 50.9203 265.917V265.917Z" fill="#D22856"/>
<path d="M38.0743 269.383C37.3417 269.383 36.6392 269.097 36.1212 268.587C35.6032 268.078 35.3122 267.387 35.3122 266.667C35.3122 267.386 35.0226 268.075 34.5068 268.584C33.9909 269.093 33.291 269.38 32.5602 269.383C33.2901 269.383 33.99 269.668 34.5062 270.175C35.0223 270.682 35.3122 271.371 35.3122 272.088C35.3149 271.37 35.607 270.682 36.1247 270.174C36.6424 269.667 37.3435 269.383 38.0743 269.383V269.383Z" fill="#D22856"/>
<path d="M10.7851 283.641C10.056 283.635 9.35862 283.347 8.84497 282.838C8.33132 282.33 8.04308 281.642 8.0431 280.925C8.0431 281.644 7.75348 282.333 7.23766 282.842C6.72184 283.351 6.02188 283.638 5.29108 283.641C6.02188 283.643 6.72184 283.931 7.23766 284.439C7.75348 284.948 8.0431 285.638 8.0431 286.356C8.04308 285.639 8.33132 284.952 8.84497 284.443C9.35862 283.934 10.056 283.646 10.7851 283.641V283.641Z" fill="#D22856"/>
<path d="M72.1933 318.425C72.1932 318.092 72.3255 317.773 72.562 317.535C72.7985 317.296 73.1204 317.159 73.4588 317.151H80.6703C85.7826 317.151 89.1473 319.827 89.1473 324.211V324.27C89.1473 329.069 85.0695 331.557 80.2484 331.557H74.7544V338.291C74.7702 338.466 74.7488 338.642 74.6916 338.808C74.6344 338.974 74.5426 339.127 74.4222 339.256C74.3017 339.386 74.1552 339.489 73.992 339.56C73.8287 339.63 73.6522 339.667 73.4738 339.667C73.2954 339.667 73.119 339.63 72.9557 339.56C72.7925 339.489 72.6459 339.386 72.5255 339.256C72.405 339.127 72.3133 338.974 72.2561 338.808C72.1989 338.642 72.1775 338.466 72.1933 338.291V318.425ZM80.3489 329.286C84.0952 329.286 86.556 327.311 86.556 324.349V324.29C86.556 321.111 84.1354 319.462 80.5297 319.462H74.8047V329.247L80.3489 329.286Z" fill="#D22856"/>
<path d="M94.0186 318.267C94.0028 318.092 94.0242 317.916 94.0814 317.75C94.1386 317.584 94.2304 317.431 94.3508 317.302C94.4713 317.173 94.6178 317.069 94.781 316.999C94.9443 316.928 95.1208 316.891 95.2992 316.891C95.4776 316.891 95.654 316.928 95.8173 316.999C95.9806 317.069 96.1271 317.173 96.2475 317.302C96.368 317.431 96.4597 317.584 96.5169 317.75C96.5741 317.916 96.5955 318.092 96.5798 318.267V338.291C96.5955 338.466 96.5741 338.642 96.5169 338.808C96.4597 338.974 96.368 339.127 96.2475 339.256C96.1271 339.386 95.9806 339.489 95.8173 339.56C95.654 339.63 95.4776 339.667 95.2992 339.667C95.1208 339.667 94.9443 339.63 94.781 339.56C94.6178 339.489 94.4713 339.386 94.3508 339.256C94.2304 339.127 94.1386 338.974 94.0814 338.808C94.0242 338.642 94.0028 338.466 94.0186 338.291V318.267Z" fill="#D22856"/>
<path d="M103.199 318.296C103.206 317.97 103.343 317.659 103.579 317.429C103.814 317.199 104.132 317.067 104.464 317.062H104.816C105.077 317.067 105.332 317.137 105.559 317.265C105.785 317.393 105.975 317.574 106.111 317.793L119.861 335.023V318.237C119.861 317.913 119.993 317.601 120.226 317.371C120.46 317.142 120.777 317.013 121.107 317.013C121.437 317.013 121.754 317.142 121.988 317.371C122.221 317.601 122.352 317.913 122.352 318.237V338.331C122.358 338.484 122.332 338.636 122.275 338.778C122.219 338.921 122.134 339.051 122.025 339.16C121.916 339.269 121.785 339.355 121.641 339.413C121.497 339.47 121.343 339.499 121.187 339.496H121.057C120.79 339.478 120.531 339.399 120.301 339.265C120.071 339.131 119.876 338.947 119.731 338.726L105.669 321.091V338.331C105.667 338.649 105.541 338.954 105.317 339.184C105.093 339.414 104.788 339.55 104.464 339.565C104.136 339.56 103.822 339.427 103.593 339.196C103.363 338.965 103.236 338.654 103.239 338.331V318.296H103.199Z" fill="#D22856"/>
<path d="M128.74 318.267C128.724 318.092 128.746 317.916 128.803 317.75C128.86 317.584 128.952 317.431 129.072 317.302C129.193 317.173 129.339 317.069 129.503 316.999C129.666 316.928 129.842 316.891 130.021 316.891C130.199 316.891 130.376 316.928 130.539 316.999C130.702 317.069 130.849 317.173 130.969 317.302C131.09 317.431 131.181 317.584 131.239 317.75C131.296 317.916 131.317 318.092 131.301 318.267V330.442L144.198 317.437C144.462 317.168 144.822 317.009 145.202 316.993C145.531 317.006 145.842 317.142 146.072 317.373C146.302 317.605 146.433 317.914 146.438 318.237C146.43 318.405 146.39 318.571 146.317 318.723C146.245 318.876 146.142 319.013 146.016 319.126L137.981 326.946L146.648 337.373C146.875 337.631 147 337.96 147 338.301C146.996 338.472 146.958 338.64 146.887 338.796C146.817 338.952 146.716 339.093 146.59 339.211C146.464 339.328 146.315 339.42 146.153 339.481C145.991 339.542 145.818 339.57 145.644 339.565C145.442 339.557 145.245 339.501 145.07 339.401C144.895 339.301 144.747 339.161 144.64 338.992L136.183 328.635L131.301 333.433V338.272C131.301 338.436 131.268 338.599 131.204 338.751C131.14 338.904 131.046 339.042 130.928 339.158C130.809 339.275 130.669 339.367 130.514 339.43C130.359 339.493 130.193 339.526 130.026 339.526C129.858 339.526 129.692 339.493 129.538 339.43C129.383 339.367 129.242 339.275 129.124 339.158C129.005 339.042 128.911 338.904 128.847 338.751C128.783 338.599 128.75 338.436 128.75 338.272V318.267H128.74Z" fill="#D22856"/>
<path d="M98.9401 309.746C97.9749 309.746 97.0491 309.369 96.3656 308.699C95.6822 308.029 95.2969 307.12 95.2942 306.171C95.2942 307.119 94.9111 308.028 94.2293 308.699C93.5474 309.369 92.6226 309.746 91.6583 309.746C92.6235 309.748 93.5483 310.127 94.2299 310.799C94.9115 311.471 95.2942 312.381 95.2942 313.33C95.2969 312.38 95.6818 311.47 96.365 310.798C97.0482 310.127 97.974 309.748 98.9401 309.746V309.746Z" fill="white"/>
<path d="M43.287 319.067C43.5381 319.067 43.7792 319.067 44.0202 319.067C43.8019 318.699 43.4897 318.393 43.1145 318.18C42.7393 317.967 42.3141 317.854 41.8809 317.852C41.4627 317.852 41.055 317.723 40.7147 317.484C40.3745 317.245 40.1185 316.908 39.9826 316.519C39.2588 316.724 38.5561 316.996 37.8834 317.329H38.0743C38.607 317.329 39.118 317.537 39.4947 317.907C39.8714 318.278 40.083 318.78 40.083 319.304C40.088 319.399 40.088 319.495 40.083 319.59C41.109 319.222 42.1953 319.045 43.287 319.067V319.067Z" fill="#D22856"/>
<path d="M60.7332 327.647L55.5406 306.566C55.179 304.246 52.9291 300 46.9028 300C46.5033 300 46.1201 300.156 45.8375 300.434C45.555 300.712 45.3962 301.088 45.3962 301.481C45.3962 301.874 45.555 302.251 45.8375 302.528C46.1201 302.806 46.5033 302.962 46.9028 302.962C51.7741 302.962 52.4973 306.645 52.5676 307.05L57.3485 326.502H55.2493C55.0321 324.805 54.4439 323.174 53.525 321.722C52.6061 320.27 51.3783 319.031 49.926 318.089C49.4712 318.277 49.0829 318.593 48.8096 318.997C48.5363 319.401 48.3901 319.875 48.3893 320.36C48.3948 320.446 48.3948 320.531 48.3893 320.617C49.6107 321.44 50.6131 322.54 51.3122 323.824C52.0113 325.107 52.3867 326.537 52.4069 327.993C52.4008 328.489 52.3538 328.985 52.2663 329.474C51.9374 331.571 50.8559 333.484 49.2173 334.866C47.5786 336.247 45.4911 337.007 43.3322 337.007C41.1734 337.007 39.0859 336.247 37.4472 334.866C35.8086 333.484 34.727 331.571 34.3982 329.474C34.3107 328.985 34.2637 328.489 34.2576 327.993C34.2733 326.623 34.5993 325.274 35.2118 324.043C34.7037 324.008 34.2282 323.785 33.8814 323.418C33.5346 323.051 33.3424 322.569 33.3436 322.068C33.3453 321.889 33.277 321.716 33.1528 321.585C32.181 323.075 31.5662 324.763 31.3549 326.522H29.4868C29.1663 323.617 27.7658 320.932 25.5542 318.981C23.3427 317.03 20.4759 315.951 17.5044 315.951C14.5329 315.951 11.6662 317.03 9.45463 318.981C7.24307 320.932 5.84259 323.617 5.5221 326.522H3.44302L8.23394 307.05C8.29421 306.645 9.0475 302.962 13.8987 302.962C14.2983 302.962 14.6815 302.806 14.964 302.528C15.2465 302.251 15.4053 301.874 15.4053 301.481C15.4053 301.088 15.2465 300.712 14.964 300.434C14.6815 300.156 14.2983 300 13.8987 300C7.87236 300 5.62254 304.246 5.26096 306.566L0.0582358 327.647C-0.00612168 327.862 -0.0173251 328.088 0.0255611 328.308C0.0684473 328.528 0.164178 328.734 0.304759 328.91C0.44534 329.086 0.62669 329.226 0.833664 329.319C1.04064 329.412 1.26723 329.455 1.49451 329.444H5.51206C5.59378 330.055 5.72135 330.659 5.89372 331.251C5.95717 331.143 5.99172 331.021 5.99416 330.896C5.99416 330.372 6.2058 329.87 6.58252 329.499C6.95923 329.129 7.47017 328.921 8.00293 328.921C8.16603 328.923 8.32812 328.946 8.48504 328.99C8.44128 328.646 8.41781 328.3 8.41473 327.953C8.41742 327.457 8.46109 326.962 8.5453 326.472C8.86708 324.368 9.94626 322.447 11.5867 321.059C13.2271 319.67 15.3198 318.907 17.4843 318.907C19.6489 318.907 21.7416 319.67 23.382 321.059C25.0224 322.447 26.1016 324.368 26.4234 326.472C26.5076 326.962 26.5513 327.457 26.554 327.953C26.5382 330.305 25.5807 332.557 23.8889 334.22C22.1971 335.883 19.907 336.824 17.5145 336.84C15.5563 336.866 13.6424 336.267 12.0607 335.132C11.6982 335.441 11.235 335.613 10.755 335.615C10.5569 335.618 10.3679 335.697 10.2288 335.836C10.0897 335.974 10.0117 336.161 10.0117 336.356C10.009 336.632 9.94739 336.905 9.83092 337.156C11.9797 338.907 14.6835 339.864 17.4743 339.861C20.4223 339.874 23.2728 338.824 25.4864 336.909C27.7 334.995 29.1232 332.35 29.4868 329.474H31.3147C31.6456 332.369 33.0499 335.043 35.2593 336.985C37.4688 338.927 40.3285 340 43.2921 340C46.2557 340 49.1154 338.927 51.3248 336.985C53.5343 335.043 54.9385 332.369 55.2694 329.474H59.2869C59.5191 329.49 59.7519 329.45 59.9647 329.357C60.1774 329.264 60.3635 329.121 60.5065 328.94C60.6495 328.76 60.7451 328.547 60.7846 328.322C60.8241 328.096 60.8065 327.864 60.7332 327.647V327.647Z" fill="#D22856"/>
<path d="M50.9203 315.917C50.3273 315.918 49.7398 315.804 49.1915 315.582C48.6432 315.36 48.1448 315.034 47.725 314.622C47.3052 314.21 46.9721 313.721 46.7448 313.182C46.5176 312.644 46.4006 312.066 46.4006 311.483C46.3979 312.66 45.9206 313.788 45.0733 314.619C44.2259 315.45 43.0778 315.917 41.8809 315.917C43.0788 315.919 44.2268 316.388 45.0739 317.221C45.9209 318.054 46.3979 319.183 46.4006 320.36C46.4006 319.182 46.8768 318.052 47.7244 317.218C48.572 316.385 49.7216 315.917 50.9203 315.917V315.917Z" fill="white"/>
<path d="M38.0743 319.383C37.3417 319.383 36.6392 319.097 36.1212 318.587C35.6032 318.078 35.3122 317.387 35.3122 316.667C35.3122 317.386 35.0226 318.075 34.5068 318.584C33.9909 319.093 33.291 319.38 32.5602 319.383C33.2901 319.383 33.99 319.668 34.5062 320.175C35.0223 320.682 35.3122 321.371 35.3122 322.088C35.3149 321.37 35.607 320.682 36.1247 320.174C36.6424 319.667 37.3435 319.383 38.0743 319.383V319.383Z" fill="white"/>
<path d="M10.7851 333.641C10.056 333.635 9.35862 333.347 8.84497 332.838C8.33132 332.33 8.04308 331.642 8.0431 330.925C8.0431 331.644 7.75348 332.333 7.23766 332.842C6.72184 333.351 6.02188 333.638 5.29108 333.641C6.02188 333.643 6.72184 333.931 7.23766 334.439C7.75348 334.948 8.0431 335.638 8.0431 336.356C8.04308 335.639 8.33132 334.952 8.84497 334.443C9.35862 333.934 10.056 333.646 10.7851 333.641V333.641Z" fill="white"/>
<g opacity="0.3">
<path d="M72.1933 368.425C72.1932 368.092 72.3255 367.773 72.562 367.535C72.7985 367.296 73.1204 367.159 73.4588 367.151H80.6703C85.7826 367.151 89.1473 369.827 89.1473 374.211V374.27C89.1473 379.069 85.0695 381.557 80.2484 381.557H74.7544V388.291C74.7702 388.466 74.7488 388.642 74.6916 388.808C74.6344 388.974 74.5426 389.127 74.4222 389.256C74.3017 389.386 74.1552 389.489 73.992 389.56C73.8287 389.63 73.6522 389.667 73.4738 389.667C73.2954 389.667 73.119 389.63 72.9557 389.56C72.7925 389.489 72.6459 389.386 72.5255 389.256C72.405 389.127 72.3133 388.974 72.2561 388.808C72.1989 388.642 72.1775 388.466 72.1933 388.291V368.425ZM80.3489 379.286C84.0952 379.286 86.556 377.311 86.556 374.349V374.29C86.556 371.111 84.1354 369.462 80.5297 369.462H74.8047V379.247L80.3489 379.286Z" fill="white"/>
<path d="M94.0186 368.267C94.0028 368.092 94.0242 367.916 94.0814 367.75C94.1386 367.584 94.2304 367.431 94.3508 367.302C94.4713 367.173 94.6178 367.069 94.781 366.999C94.9443 366.928 95.1208 366.891 95.2992 366.891C95.4776 366.891 95.654 366.928 95.8173 366.999C95.9806 367.069 96.1271 367.173 96.2475 367.302C96.368 367.431 96.4597 367.584 96.5169 367.75C96.5741 367.916 96.5955 368.092 96.5798 368.267V388.291C96.5955 388.466 96.5741 388.642 96.5169 388.808C96.4597 388.974 96.368 389.127 96.2475 389.256C96.1271 389.386 95.9806 389.489 95.8173 389.56C95.654 389.63 95.4776 389.667 95.2992 389.667C95.1208 389.667 94.9443 389.63 94.781 389.56C94.6178 389.489 94.4713 389.386 94.3508 389.256C94.2304 389.127 94.1386 388.974 94.0814 388.808C94.0242 388.642 94.0028 388.466 94.0186 388.291V368.267Z" fill="white"/>
<path d="M103.199 368.296C103.206 367.97 103.343 367.659 103.579 367.429C103.814 367.199 104.132 367.067 104.464 367.062H104.816C105.077 367.067 105.332 367.137 105.559 367.265C105.785 367.393 105.975 367.574 106.111 367.793L119.861 385.023V368.237C119.861 367.913 119.993 367.601 120.226 367.371C120.46 367.142 120.777 367.013 121.107 367.013C121.437 367.013 121.754 367.142 121.988 367.371C122.221 367.601 122.352 367.913 122.352 368.237V388.331C122.358 388.484 122.332 388.636 122.275 388.778C122.219 388.921 122.134 389.051 122.025 389.16C121.916 389.269 121.785 389.355 121.641 389.413C121.497 389.47 121.343 389.499 121.187 389.496H121.057C120.79 389.478 120.531 389.399 120.301 389.265C120.071 389.131 119.876 388.947 119.731 388.726L105.669 371.091V388.331C105.667 388.649 105.541 388.954 105.317 389.184C105.093 389.414 104.788 389.55 104.464 389.565C104.136 389.56 103.822 389.427 103.593 389.196C103.363 388.965 103.236 388.654 103.239 388.331V368.296H103.199Z" fill="white"/>
<path d="M128.74 368.267C128.724 368.092 128.746 367.916 128.803 367.75C128.86 367.584 128.952 367.431 129.072 367.302C129.193 367.173 129.339 367.069 129.503 366.999C129.666 366.928 129.842 366.891 130.021 366.891C130.199 366.891 130.376 366.928 130.539 366.999C130.702 367.069 130.849 367.173 130.969 367.302C131.09 367.431 131.181 367.584 131.239 367.75C131.296 367.916 131.317 368.092 131.301 368.267V380.442L144.198 367.437C144.462 367.168 144.822 367.009 145.202 366.993C145.531 367.006 145.842 367.142 146.072 367.373C146.302 367.605 146.433 367.914 146.438 368.237C146.43 368.405 146.39 368.571 146.317 368.723C146.245 368.876 146.142 369.013 146.016 369.126L137.981 376.946L146.648 387.373C146.875 387.631 147 387.96 147 388.301C146.996 388.472 146.958 388.64 146.887 388.796C146.817 388.952 146.716 389.093 146.59 389.211C146.464 389.328 146.315 389.42 146.153 389.481C145.991 389.542 145.818 389.57 145.644 389.565C145.442 389.557 145.245 389.501 145.07 389.401C144.895 389.301 144.747 389.161 144.64 388.992L136.183 378.635L131.301 383.433V388.272C131.301 388.436 131.268 388.599 131.204 388.751C131.14 388.904 131.046 389.042 130.928 389.158C130.809 389.275 130.669 389.367 130.514 389.43C130.359 389.493 130.193 389.526 130.026 389.526C129.858 389.526 129.692 389.493 129.538 389.43C129.383 389.367 129.242 389.275 129.124 389.158C129.005 389.042 128.911 388.904 128.847 388.751C128.783 388.599 128.75 388.436 128.75 388.272V368.267H128.74Z" fill="white"/>
<path d="M98.9401 359.746C97.9749 359.746 97.0491 359.369 96.3656 358.699C95.6822 358.029 95.2969 357.12 95.2942 356.171C95.2942 357.119 94.9111 358.028 94.2293 358.699C93.5474 359.369 92.6226 359.746 91.6583 359.746C92.6235 359.748 93.5483 360.127 94.2299 360.799C94.9115 361.471 95.2942 362.381 95.2942 363.33C95.2969 362.38 95.6818 361.47 96.365 360.798C97.0482 360.127 97.974 359.748 98.9401 359.746V359.746Z" fill="#D22856"/>
<path d="M43.287 369.067C43.5381 369.067 43.7792 369.067 44.0202 369.067C43.8019 368.699 43.4897 368.393 43.1145 368.18C42.7393 367.967 42.3141 367.854 41.8809 367.852C41.4627 367.852 41.055 367.723 40.7147 367.484C40.3745 367.245 40.1185 366.908 39.9826 366.519C39.2588 366.724 38.5561 366.996 37.8834 367.329H38.0743C38.607 367.329 39.118 367.537 39.4947 367.907C39.8714 368.278 40.083 368.78 40.083 369.304C40.088 369.399 40.088 369.495 40.083 369.59C41.109 369.222 42.1953 369.045 43.287 369.067V369.067Z" fill="white"/>
<path d="M60.7332 377.647L55.5406 356.566C55.179 354.246 52.9291 350 46.9028 350C46.5033 350 46.1201 350.156 45.8375 350.434C45.555 350.712 45.3962 351.088 45.3962 351.481C45.3962 351.874 45.555 352.251 45.8375 352.528C46.1201 352.806 46.5033 352.962 46.9028 352.962C51.7741 352.962 52.4973 356.645 52.5676 357.05L57.3485 376.502H55.2493C55.0321 374.805 54.4439 373.174 53.525 371.722C52.6061 370.27 51.3783 369.031 49.926 368.089C49.4712 368.277 49.0829 368.593 48.8096 368.997C48.5363 369.401 48.3901 369.875 48.3893 370.36C48.3948 370.446 48.3948 370.531 48.3893 370.617C49.6107 371.44 50.6131 372.54 51.3122 373.824C52.0113 375.107 52.3867 376.537 52.4069 377.993C52.4008 378.489 52.3538 378.985 52.2663 379.474C51.9374 381.571 50.8559 383.484 49.2173 384.866C47.5786 386.247 45.4911 387.007 43.3322 387.007C41.1734 387.007 39.0859 386.247 37.4472 384.866C35.8086 383.484 34.727 381.571 34.3982 379.474C34.3107 378.985 34.2637 378.489 34.2576 377.993C34.2733 376.623 34.5993 375.274 35.2118 374.043C34.7037 374.008 34.2282 373.785 33.8814 373.418C33.5346 373.051 33.3424 372.569 33.3436 372.068C33.3453 371.889 33.277 371.716 33.1528 371.585C32.181 373.075 31.5662 374.763 31.3549 376.522H29.4868C29.1663 373.617 27.7658 370.932 25.5542 368.981C23.3427 367.03 20.4759 365.951 17.5044 365.951C14.5329 365.951 11.6662 367.03 9.45463 368.981C7.24307 370.932 5.84259 373.617 5.5221 376.522H3.44302L8.23394 357.05C8.29421 356.645 9.0475 352.962 13.8987 352.962C14.2983 352.962 14.6815 352.806 14.964 352.528C15.2465 352.251 15.4053 351.874 15.4053 351.481C15.4053 351.088 15.2465 350.712 14.964 350.434C14.6815 350.156 14.2983 350 13.8987 350C7.87236 350 5.62254 354.246 5.26096 356.566L0.0582358 377.647C-0.00612168 377.862 -0.0173251 378.088 0.0255611 378.308C0.0684473 378.528 0.164178 378.734 0.304759 378.91C0.44534 379.086 0.62669 379.226 0.833664 379.319C1.04064 379.412 1.26723 379.455 1.49451 379.444H5.51206C5.59378 380.055 5.72135 380.659 5.89372 381.251C5.95717 381.143 5.99172 381.021 5.99416 380.896C5.99416 380.372 6.2058 379.87 6.58252 379.499C6.95923 379.129 7.47017 378.921 8.00293 378.921C8.16603 378.923 8.32812 378.946 8.48504 378.99C8.44128 378.646 8.41781 378.3 8.41473 377.953C8.41742 377.457 8.46109 376.962 8.5453 376.472C8.86708 374.368 9.94626 372.447 11.5867 371.059C13.2271 369.67 15.3198 368.907 17.4843 368.907C19.6489 368.907 21.7416 369.67 23.382 371.059C25.0224 372.447 26.1016 374.368 26.4234 376.472C26.5076 376.962 26.5513 377.457 26.554 377.953C26.5382 380.305 25.5807 382.557 23.8889 384.22C22.1971 385.883 19.907 386.824 17.5145 386.84C15.5563 386.866 13.6424 386.267 12.0607 385.132C11.6982 385.441 11.235 385.613 10.755 385.615C10.5569 385.618 10.3679 385.697 10.2288 385.836C10.0897 385.974 10.0117 386.161 10.0117 386.356C10.009 386.632 9.94739 386.905 9.83092 387.156C11.9797 388.907 14.6835 389.864 17.4743 389.861C20.4223 389.874 23.2728 388.824 25.4864 386.909C27.7 384.995 29.1232 382.35 29.4868 379.474H31.3147C31.6456 382.369 33.0499 385.043 35.2593 386.985C37.4688 388.927 40.3285 390 43.2921 390C46.2557 390 49.1154 388.927 51.3248 386.985C53.5343 385.043 54.9385 382.369 55.2694 379.474H59.2869C59.5191 379.49 59.7519 379.45 59.9647 379.357C60.1774 379.264 60.3635 379.121 60.5065 378.94C60.6495 378.76 60.7451 378.547 60.7846 378.322C60.8241 378.096 60.8065 377.864 60.7332 377.647V377.647Z" fill="white"/>
<path d="M50.9203 365.917C50.3273 365.918 49.7398 365.804 49.1915 365.582C48.6432 365.36 48.1448 365.034 47.725 364.622C47.3052 364.21 46.9721 363.721 46.7448 363.182C46.5176 362.644 46.4006 362.066 46.4006 361.483C46.3979 362.66 45.9206 363.788 45.0733 364.619C44.2259 365.45 43.0778 365.917 41.8809 365.917C43.0788 365.919 44.2268 366.388 45.0739 367.221C45.9209 368.054 46.3979 369.183 46.4006 370.36C46.4006 369.182 46.8768 368.052 47.7244 367.218C48.572 366.385 49.7216 365.917 50.9203 365.917V365.917Z" fill="#D22856"/>
<path d="M38.0743 369.383C37.3417 369.383 36.6392 369.097 36.1212 368.587C35.6032 368.078 35.3122 367.387 35.3122 366.667C35.3122 367.386 35.0226 368.075 34.5068 368.584C33.9909 369.093 33.291 369.38 32.5602 369.383C33.2901 369.383 33.99 369.668 34.5062 370.175C35.0223 370.682 35.3122 371.371 35.3122 372.088C35.3149 371.37 35.607 370.682 36.1247 370.174C36.6424 369.667 37.3435 369.383 38.0743 369.383V369.383Z" fill="#D22856"/>
<path d="M10.7851 383.641C10.056 383.635 9.35862 383.347 8.84497 382.838C8.33132 382.33 8.04308 381.642 8.0431 380.925C8.0431 381.644 7.75348 382.333 7.23766 382.842C6.72184 383.351 6.02188 383.638 5.29108 383.641C6.02188 383.643 6.72184 383.931 7.23766 384.439C7.75348 384.948 8.0431 385.638 8.0431 386.356C8.04308 385.639 8.33132 384.952 8.84497 384.443C9.35862 383.934 10.056 383.646 10.7851 383.641V383.641Z" fill="#D22856"/>
</g>
<path d="M72.1933 418.425C72.1932 418.092 72.3256 417.773 72.5621 417.535C72.7986 417.296 73.1205 417.159 73.4588 417.151H80.6703C85.7827 417.151 89.1474 419.827 89.1474 424.211V424.27C89.1474 429.069 85.0696 431.557 80.2485 431.557H74.7545V438.291C74.7703 438.466 74.7488 438.642 74.6916 438.808C74.6344 438.974 74.5427 439.127 74.4223 439.256C74.3018 439.386 74.1553 439.489 73.992 439.56C73.8287 439.63 73.6523 439.667 73.4739 439.667C73.2955 439.667 73.1191 439.63 72.9558 439.56C72.7925 439.489 72.646 439.386 72.5256 439.256C72.4051 439.127 72.3134 438.974 72.2562 438.808C72.199 438.642 72.1776 438.466 72.1933 438.291V418.425ZM80.3489 429.286C84.0953 429.286 86.556 427.311 86.556 424.349V424.29C86.556 421.111 84.1355 419.462 80.5297 419.462H74.8047V429.247L80.3489 429.286Z" fill="#283645"/>
<path d="M94.0186 418.267C94.0028 418.092 94.0242 417.916 94.0814 417.75C94.1386 417.584 94.2304 417.431 94.3508 417.302C94.4713 417.173 94.6178 417.069 94.781 416.999C94.9443 416.928 95.1208 416.891 95.2992 416.891C95.4776 416.891 95.654 416.928 95.8173 416.999C95.9806 417.069 96.1271 417.173 96.2475 417.302C96.368 417.431 96.4597 417.584 96.5169 417.75C96.5741 417.916 96.5955 418.092 96.5798 418.267V438.291C96.5955 438.466 96.5741 438.642 96.5169 438.808C96.4597 438.974 96.368 439.127 96.2475 439.256C96.1271 439.386 95.9806 439.489 95.8173 439.56C95.654 439.63 95.4776 439.667 95.2992 439.667C95.1208 439.667 94.9443 439.63 94.781 439.56C94.6178 439.489 94.4713 439.386 94.3508 439.256C94.2304 439.127 94.1386 438.974 94.0814 438.808C94.0242 438.642 94.0028 438.466 94.0186 438.291V418.267Z" fill="#283645"/>
<path d="M103.199 418.296C103.206 417.97 103.343 417.659 103.579 417.429C103.814 417.199 104.132 417.067 104.464 417.062H104.816C105.077 417.067 105.332 417.137 105.559 417.265C105.785 417.393 105.975 417.574 106.111 417.793L119.861 435.023V418.237C119.861 417.913 119.993 417.601 120.226 417.371C120.46 417.142 120.777 417.013 121.107 417.013C121.437 417.013 121.754 417.142 121.988 417.371C122.221 417.601 122.352 417.913 122.352 418.237V438.331C122.358 438.484 122.332 438.636 122.275 438.778C122.219 438.921 122.134 439.051 122.025 439.16C121.916 439.269 121.785 439.355 121.641 439.413C121.497 439.47 121.343 439.499 121.187 439.496H121.057C120.79 439.478 120.531 439.399 120.301 439.265C120.071 439.131 119.876 438.947 119.731 438.726L105.669 421.091V438.331C105.667 438.649 105.541 438.954 105.317 439.184C105.093 439.414 104.788 439.55 104.464 439.565C104.136 439.56 103.822 439.427 103.593 439.196C103.363 438.965 103.236 438.654 103.239 438.331V418.296H103.199Z" fill="#283645"/>
<path d="M128.74 418.267C128.724 418.092 128.746 417.916 128.803 417.75C128.86 417.584 128.952 417.431 129.072 417.302C129.193 417.173 129.339 417.069 129.503 416.999C129.666 416.928 129.842 416.891 130.021 416.891C130.199 416.891 130.376 416.928 130.539 416.999C130.702 417.069 130.849 417.173 130.969 417.302C131.09 417.431 131.181 417.584 131.239 417.75C131.296 417.916 131.317 418.092 131.301 418.267V430.441L144.198 417.437C144.462 417.168 144.822 417.009 145.202 416.993C145.531 417.006 145.842 417.142 146.072 417.373C146.302 417.605 146.433 417.914 146.438 418.237C146.43 418.405 146.39 418.571 146.317 418.723C146.245 418.876 146.142 419.012 146.016 419.126L137.981 426.946L146.648 437.373C146.875 437.631 147 437.96 147 438.301C146.996 438.472 146.958 438.64 146.887 438.796C146.817 438.952 146.716 439.093 146.59 439.211C146.464 439.328 146.315 439.42 146.153 439.481C145.991 439.542 145.818 439.57 145.644 439.565C145.441 439.56 145.243 439.504 145.068 439.404C144.892 439.304 144.745 439.163 144.64 438.992L136.193 428.635L131.301 433.433V438.272C131.301 438.436 131.268 438.599 131.204 438.751C131.14 438.904 131.046 439.042 130.928 439.158C130.809 439.275 130.669 439.367 130.514 439.43C130.359 439.493 130.193 439.526 130.026 439.526C129.858 439.526 129.692 439.493 129.538 439.43C129.383 439.367 129.242 439.275 129.124 439.158C129.005 439.042 128.911 438.904 128.847 438.751C128.783 438.599 128.75 438.436 128.75 438.272V418.267H128.74Z" fill="#283645"/>
<path d="M98.9401 409.746C97.9749 409.746 97.0491 409.369 96.3656 408.699C95.6822 408.029 95.2969 407.12 95.2942 406.171C95.2942 407.119 94.9111 408.028 94.2293 408.699C93.5474 409.369 92.6226 409.746 91.6583 409.746C92.6235 409.748 93.5483 410.127 94.2299 410.799C94.9115 411.471 95.2942 412.381 95.2942 413.33C95.2969 412.38 95.6818 411.47 96.365 410.798C97.0482 410.127 97.974 409.748 98.9401 409.746V409.746Z" fill="#D22856"/>
<path d="M43.287 419.067C43.5381 419.067 43.7792 419.067 44.0202 419.067C43.8019 418.699 43.4897 418.393 43.1145 418.18C42.7393 417.967 42.3141 417.854 41.8809 417.852C41.4627 417.852 41.055 417.723 40.7147 417.484C40.3745 417.245 40.1185 416.908 39.9826 416.519C39.2588 416.724 38.5561 416.996 37.8834 417.329H38.0743C38.607 417.329 39.118 417.537 39.4947 417.907C39.8714 418.278 40.083 418.78 40.083 419.304C40.088 419.399 40.088 419.495 40.083 419.59C41.109 419.222 42.1953 419.045 43.287 419.067V419.067Z" fill="#D22856"/>
<path d="M60.7332 427.647L55.5406 406.566C55.179 404.246 52.9291 400 46.9028 400C46.5033 400 46.1201 400.156 45.8375 400.434C45.555 400.712 45.3962 401.088 45.3962 401.481C45.3962 401.874 45.555 402.251 45.8375 402.528C46.1201 402.806 46.5033 402.962 46.9028 402.962C51.7741 402.962 52.4973 406.645 52.5676 407.05L57.3485 426.502H55.2493C55.0321 424.805 54.4439 423.174 53.525 421.722C52.6061 420.27 51.3783 419.031 49.926 418.089C49.4712 418.277 49.0829 418.593 48.8096 418.997C48.5363 419.401 48.3901 419.875 48.3893 420.36C48.3948 420.446 48.3948 420.531 48.3893 420.617C49.6107 421.44 50.6131 422.54 51.3122 423.824C52.0113 425.107 52.3867 426.537 52.4069 427.993C52.4008 428.489 52.3538 428.985 52.2663 429.474C51.9374 431.571 50.8559 433.484 49.2173 434.866C47.5786 436.247 45.4911 437.007 43.3322 437.007C41.1734 437.007 39.0859 436.247 37.4472 434.866C35.8086 433.484 34.727 431.571 34.3982 429.474C34.3107 428.985 34.2637 428.489 34.2576 427.993C34.2733 426.623 34.5993 425.274 35.2118 424.043C34.7037 424.008 34.2282 423.785 33.8814 423.418C33.5346 423.051 33.3424 422.569 33.3436 422.068C33.3453 421.889 33.277 421.716 33.1528 421.585C32.181 423.075 31.5662 424.763 31.3549 426.522H29.4868C29.1663 423.617 27.7658 420.932 25.5542 418.981C23.3427 417.03 20.4759 415.951 17.5044 415.951C14.5329 415.951 11.6662 417.03 9.45463 418.981C7.24307 420.932 5.84259 423.617 5.5221 426.522H3.44302L8.23394 407.05C8.29421 406.645 9.0475 402.962 13.8987 402.962C14.2983 402.962 14.6815 402.806 14.964 402.528C15.2465 402.251 15.4053 401.874 15.4053 401.481C15.4053 401.088 15.2465 400.712 14.964 400.434C14.6815 400.156 14.2983 400 13.8987 400C7.87236 400 5.62254 404.246 5.26096 406.566L0.0582358 427.647C-0.00612168 427.862 -0.0173251 428.088 0.0255611 428.308C0.0684473 428.528 0.164178 428.734 0.304759 428.91C0.44534 429.086 0.62669 429.226 0.833664 429.319C1.04064 429.412 1.26723 429.455 1.49451 429.444H5.51206C5.59378 430.055 5.72135 430.659 5.89372 431.251C5.95717 431.143 5.99172 431.021 5.99416 430.896C5.99416 430.372 6.2058 429.87 6.58252 429.499C6.95923 429.129 7.47017 428.921 8.00293 428.921C8.16525 428.925 8.32675 428.945 8.48504 428.98C8.44252 428.653 8.41904 428.323 8.41473 427.993C8.41742 427.496 8.46109 427.001 8.5453 426.512C8.86708 424.407 9.94626 422.486 11.5867 421.098C13.2271 419.71 15.3198 418.946 17.4843 418.946C19.6489 418.946 21.7416 419.71 23.382 421.098C25.0224 422.486 26.1016 424.407 26.4234 426.512C26.5076 427.001 26.5513 427.496 26.554 427.993C26.5638 429.651 26.1017 431.278 25.2199 432.691C24.3381 434.105 23.0717 435.247 21.5639 435.99C20.0561 436.733 18.3671 437.046 16.6877 436.894C15.0083 436.742 13.4056 436.132 12.0607 435.132C11.6982 435.441 11.235 435.613 10.755 435.615C10.5569 435.618 10.3679 435.697 10.2288 435.836C10.0897 435.974 10.0117 436.161 10.0117 436.356C10.009 436.632 9.94739 436.905 9.83092 437.156C11.9797 438.907 14.6835 439.864 17.4743 439.861C20.4223 439.874 23.2728 438.824 25.4864 436.909C27.7 434.995 29.1232 432.35 29.4868 429.474H31.3147C31.6456 432.369 33.0499 435.043 35.2593 436.985C37.4688 438.927 40.3285 440 43.2921 440C46.2557 440 49.1154 438.927 51.3248 436.985C53.5343 435.043 54.9385 432.369 55.2694 429.474H59.2869C59.5191 429.49 59.7519 429.45 59.9647 429.357C60.1774 429.264 60.3635 429.121 60.5065 428.94C60.6495 428.76 60.7451 428.547 60.7846 428.322C60.8241 428.096 60.8065 427.864 60.7332 427.647V427.647Z" fill="#D22856"/>
<path d="M50.9203 415.917C50.3273 415.918 49.7398 415.804 49.1915 415.582C48.6432 415.36 48.1448 415.034 47.725 414.622C47.3052 414.21 46.9721 413.721 46.7448 413.182C46.5176 412.644 46.4006 412.066 46.4006 411.483C46.3979 412.66 45.9206 413.788 45.0733 414.619C44.2259 415.45 43.0778 415.917 41.8809 415.917C43.0788 415.919 44.2268 416.388 45.0739 417.221C45.9209 418.054 46.3979 419.183 46.4006 420.36C46.4006 419.182 46.8768 418.052 47.7244 417.218C48.572 416.385 49.7216 415.917 50.9203 415.917V415.917Z" fill="#283645"/>
<path d="M38.0743 419.383C37.3417 419.383 36.6392 419.097 36.1212 418.587C35.6032 418.078 35.3122 417.387 35.3122 416.667C35.3122 417.386 35.0226 418.075 34.5068 418.584C33.9909 419.093 33.291 419.38 32.5602 419.383C33.2901 419.383 33.99 419.668 34.5062 420.175C35.0223 420.682 35.3122 421.371 35.3122 422.088C35.3149 421.37 35.607 420.682 36.1247 420.174C36.6424 419.667 37.3435 419.383 38.0743 419.383V419.383Z" fill="#283645"/>
<path d="M10.7851 433.641C10.056 433.635 9.35862 433.347 8.84497 432.838C8.33132 432.33 8.04308 431.642 8.0431 430.925C8.0431 431.644 7.75348 432.333 7.23766 432.842C6.72184 433.351 6.02188 433.638 5.29108 433.641C6.02188 433.643 6.72184 433.93 7.23766 434.439C7.75348 434.948 8.0431 435.638 8.0431 436.356C8.04308 435.639 8.33132 434.952 8.84497 434.443C9.35862 433.934 10.056 433.646 10.7851 433.641V433.641Z" fill="#283645"/>
<path d="M72.1933 468.425C72.1932 468.092 72.3256 467.773 72.5621 467.535C72.7986 467.296 73.1205 467.159 73.4588 467.151H80.6703C85.7827 467.151 89.1474 469.827 89.1474 474.211V474.27C89.1474 479.069 85.0696 481.557 80.2485 481.557H74.7545V488.291C74.7703 488.466 74.7488 488.642 74.6916 488.808C74.6344 488.974 74.5427 489.127 74.4223 489.256C74.3018 489.386 74.1553 489.489 73.992 489.56C73.8287 489.63 73.6523 489.667 73.4739 489.667C73.2955 489.667 73.1191 489.63 72.9558 489.56C72.7925 489.489 72.646 489.386 72.5256 489.256C72.4051 489.127 72.3134 488.974 72.2562 488.808C72.199 488.642 72.1776 488.466 72.1933 488.291V468.425ZM80.3489 479.286C84.0953 479.286 86.556 477.311 86.556 474.349V474.29C86.556 471.111 84.1355 469.462 80.5297 469.462H74.8047V479.247L80.3489 479.286Z" fill="#D22856"/>
<path d="M94.0186 468.267C94.0028 468.092 94.0242 467.916 94.0814 467.75C94.1386 467.584 94.2304 467.431 94.3508 467.302C94.4713 467.173 94.6178 467.069 94.781 466.999C94.9443 466.928 95.1208 466.891 95.2992 466.891C95.4776 466.891 95.654 466.928 95.8173 466.999C95.9806 467.069 96.1271 467.173 96.2475 467.302C96.368 467.431 96.4597 467.584 96.5169 467.75C96.5741 467.916 96.5955 468.092 96.5798 468.267V488.291C96.5955 488.466 96.5741 488.642 96.5169 488.808C96.4597 488.974 96.368 489.127 96.2475 489.256C96.1271 489.386 95.9806 489.489 95.8173 489.56C95.654 489.63 95.4776 489.667 95.2992 489.667C95.1208 489.667 94.9443 489.63 94.781 489.56C94.6178 489.489 94.4713 489.386 94.3508 489.256C94.2304 489.127 94.1386 488.974 94.0814 488.808C94.0242 488.642 94.0028 488.466 94.0186 488.291V468.267Z" fill="#D22856"/>
<path d="M103.199 468.296C103.206 467.97 103.343 467.659 103.579 467.429C103.814 467.199 104.132 467.067 104.464 467.062H104.816C105.077 467.067 105.332 467.137 105.559 467.265C105.785 467.393 105.975 467.574 106.111 467.793L119.861 485.023V468.237C119.861 467.913 119.993 467.601 120.226 467.371C120.46 467.142 120.777 467.013 121.107 467.013C121.437 467.013 121.754 467.142 121.988 467.371C122.221 467.601 122.352 467.913 122.352 468.237V488.331C122.358 488.484 122.332 488.636 122.275 488.778C122.219 488.921 122.134 489.051 122.025 489.16C121.916 489.269 121.785 489.355 121.641 489.413C121.497 489.47 121.343 489.499 121.187 489.496H121.057C120.79 489.478 120.531 489.399 120.301 489.265C120.071 489.131 119.876 488.947 119.731 488.726L105.669 471.091V488.331C105.667 488.649 105.541 488.954 105.317 489.184C105.093 489.414 104.788 489.55 104.464 489.565C104.136 489.56 103.822 489.427 103.593 489.196C103.363 488.965 103.236 488.654 103.239 488.331V468.296H103.199Z" fill="#D22856"/>
<path d="M128.74 468.267C128.724 468.092 128.746 467.916 128.803 467.75C128.86 467.584 128.952 467.431 129.072 467.302C129.193 467.173 129.339 467.069 129.503 466.999C129.666 466.928 129.842 466.891 130.021 466.891C130.199 466.891 130.376 466.928 130.539 466.999C130.702 467.069 130.849 467.173 130.969 467.302C131.09 467.431 131.181 467.584 131.239 467.75C131.296 467.916 131.317 468.092 131.301 468.267V480.441L144.198 467.437C144.462 467.168 144.822 467.009 145.202 466.993C145.531 467.006 145.842 467.142 146.072 467.373C146.302 467.605 146.433 467.914 146.438 468.237C146.43 468.405 146.39 468.571 146.317 468.723C146.245 468.876 146.142 469.012 146.016 469.126L137.981 476.946L146.648 487.373C146.875 487.631 147 487.96 147 488.301C146.996 488.472 146.958 488.64 146.887 488.796C146.817 488.952 146.716 489.093 146.59 489.211C146.464 489.328 146.315 489.42 146.153 489.481C145.991 489.542 145.818 489.57 145.644 489.565C145.441 489.56 145.243 489.504 145.068 489.404C144.892 489.304 144.745 489.163 144.64 488.992L136.193 478.635L131.301 483.433V488.272C131.301 488.436 131.268 488.599 131.204 488.751C131.14 488.904 131.046 489.042 130.928 489.158C130.809 489.275 130.669 489.367 130.514 489.43C130.359 489.493 130.193 489.526 130.026 489.526C129.858 489.526 129.692 489.493 129.538 489.43C129.383 489.367 129.242 489.275 129.124 489.158C129.005 489.042 128.911 488.904 128.847 488.751C128.783 488.599 128.75 488.436 128.75 488.272V468.267H128.74Z" fill="#D22856"/>
<path d="M98.9401 459.746C97.9749 459.746 97.0491 459.369 96.3656 458.699C95.6822 458.029 95.2969 457.12 95.2942 456.171C95.2942 457.119 94.9111 458.028 94.2293 458.699C93.5474 459.369 92.6226 459.746 91.6583 459.746C92.6235 459.748 93.5483 460.127 94.2299 460.799C94.9115 461.471 95.2942 462.381 95.2942 463.33C95.2969 462.38 95.6818 461.47 96.365 460.798C97.0482 460.127 97.974 459.748 98.9401 459.746V459.746Z" fill="#283645"/>
<path d="M43.287 469.067C43.5381 469.067 43.7792 469.067 44.0202 469.067C43.8019 468.699 43.4897 468.393 43.1145 468.18C42.7393 467.967 42.3141 467.854 41.8809 467.852C41.4627 467.852 41.055 467.723 40.7147 467.484C40.3745 467.245 40.1185 466.908 39.9826 466.519C39.2588 466.724 38.5561 466.996 37.8834 467.329H38.0743C38.607 467.329 39.118 467.537 39.4947 467.907C39.8714 468.278 40.083 468.78 40.083 469.304C40.088 469.399 40.088 469.495 40.083 469.59C41.109 469.222 42.1953 469.045 43.287 469.067V469.067Z" fill="#283645"/>
<path d="M60.7332 477.647L55.5406 456.566C55.179 454.246 52.9291 450 46.9028 450C46.5033 450 46.1201 450.156 45.8375 450.434C45.555 450.712 45.3962 451.088 45.3962 451.481C45.3962 451.874 45.555 452.251 45.8375 452.528C46.1201 452.806 46.5033 452.962 46.9028 452.962C51.7741 452.962 52.4973 456.645 52.5676 457.05L57.3485 476.502H55.2493C55.0321 474.805 54.4439 473.174 53.525 471.722C52.6061 470.27 51.3783 469.031 49.926 468.089C49.4712 468.277 49.0829 468.593 48.8096 468.997C48.5363 469.401 48.3901 469.875 48.3893 470.36C48.3948 470.446 48.3948 470.531 48.3893 470.617C49.6107 471.44 50.6131 472.54 51.3122 473.824C52.0113 475.107 52.3867 476.537 52.4069 477.993C52.4008 478.489 52.3538 478.985 52.2663 479.474C51.9374 481.571 50.8559 483.484 49.2173 484.866C47.5786 486.247 45.4911 487.007 43.3322 487.007C41.1734 487.007 39.0859 486.247 37.4472 484.866C35.8086 483.484 34.727 481.571 34.3982 479.474C34.3107 478.985 34.2637 478.489 34.2576 477.993C34.2733 476.623 34.5993 475.274 35.2118 474.043C34.7037 474.008 34.2282 473.785 33.8814 473.418C33.5346 473.051 33.3424 472.569 33.3436 472.068C33.3453 471.889 33.277 471.716 33.1528 471.585C32.181 473.075 31.5662 474.763 31.3549 476.522H29.4868C29.1663 473.617 27.7658 470.932 25.5542 468.981C23.3427 467.03 20.4759 465.951 17.5044 465.951C14.5329 465.951 11.6662 467.03 9.45463 468.981C7.24307 470.932 5.84259 473.617 5.5221 476.522H3.44302L8.23394 457.05C8.29421 456.645 9.0475 452.962 13.8987 452.962C14.2983 452.962 14.6815 452.806 14.964 452.528C15.2465 452.251 15.4053 451.874 15.4053 451.481C15.4053 451.088 15.2465 450.712 14.964 450.434C14.6815 450.156 14.2983 450 13.8987 450C7.87236 450 5.62254 454.246 5.26096 456.566L0.0582358 477.647C-0.00612168 477.862 -0.0173251 478.088 0.0255611 478.308C0.0684473 478.528 0.164178 478.734 0.304759 478.91C0.44534 479.086 0.62669 479.226 0.833664 479.319C1.04064 479.412 1.26723 479.455 1.49451 479.444H5.51206C5.59378 480.055 5.72135 480.659 5.89372 481.251C5.95717 481.143 5.99172 481.021 5.99416 480.896C5.99416 480.372 6.2058 479.87 6.58252 479.499C6.95923 479.129 7.47017 478.921 8.00293 478.921C8.16525 478.925 8.32675 478.945 8.48504 478.98C8.44252 478.653 8.41904 478.323 8.41473 477.993C8.41742 477.496 8.46109 477.001 8.5453 476.512C8.86708 474.407 9.94626 472.486 11.5867 471.098C13.2271 469.71 15.3198 468.946 17.4843 468.946C19.6489 468.946 21.7416 469.71 23.382 471.098C25.0224 472.486 26.1016 474.407 26.4234 476.512C26.5076 477.001 26.5513 477.496 26.554 477.993C26.5638 479.651 26.1017 481.278 25.2199 482.691C24.3381 484.105 23.0717 485.247 21.5639 485.99C20.0561 486.733 18.3671 487.046 16.6877 486.894C15.0083 486.742 13.4056 486.132 12.0607 485.132C11.6982 485.441 11.235 485.613 10.755 485.615C10.5569 485.618 10.3679 485.697 10.2288 485.836C10.0897 485.974 10.0117 486.161 10.0117 486.356C10.009 486.632 9.94739 486.905 9.83092 487.156C11.9797 488.907 14.6835 489.864 17.4743 489.861C20.4223 489.874 23.2728 488.824 25.4864 486.909C27.7 484.995 29.1232 482.35 29.4868 479.474H31.3147C31.6456 482.369 33.0499 485.043 35.2593 486.985C37.4688 488.927 40.3285 490 43.2921 490C46.2557 490 49.1154 488.927 51.3248 486.985C53.5343 485.043 54.9385 482.369 55.2694 479.474H59.2869C59.5191 479.49 59.7519 479.45 59.9647 479.357C60.1774 479.264 60.3635 479.121 60.5065 478.94C60.6495 478.76 60.7451 478.547 60.7846 478.322C60.8241 478.096 60.8065 477.864 60.7332 477.647V477.647Z" fill="#283645"/>
<path d="M50.9203 465.917C50.3273 465.918 49.7398 465.804 49.1915 465.582C48.6432 465.36 48.1448 465.034 47.725 464.622C47.3052 464.21 46.9721 463.721 46.7448 463.182C46.5176 462.644 46.4006 462.066 46.4006 461.483C46.3979 462.66 45.9206 463.788 45.0733 464.619C44.2259 465.45 43.0778 465.917 41.8809 465.917C43.0788 465.919 44.2268 466.388 45.0739 467.221C45.9209 468.054 46.3979 469.183 46.4006 470.36C46.4006 469.182 46.8768 468.052 47.7244 467.218C48.572 466.385 49.7216 465.917 50.9203 465.917V465.917Z" fill="#D22856"/>
<path d="M38.0743 469.383C37.3417 469.383 36.6392 469.097 36.1212 468.587C35.6032 468.078 35.3122 467.387 35.3122 466.667C35.3122 467.386 35.0226 468.075 34.5068 468.584C33.9909 469.093 33.291 469.38 32.5602 469.383C33.2901 469.383 33.99 469.668 34.5062 470.175C35.0223 470.682 35.3122 471.371 35.3122 472.088C35.3149 471.37 35.607 470.682 36.1247 470.174C36.6424 469.667 37.3435 469.383 38.0743 469.383V469.383Z" fill="#D22856"/>
<path d="M10.7851 483.641C10.056 483.635 9.35862 483.347 8.84497 482.838C8.33132 482.33 8.04308 481.642 8.0431 480.925C8.0431 481.644 7.75348 482.333 7.23766 482.842C6.72184 483.351 6.02188 483.638 5.29108 483.641C6.02188 483.643 6.72184 483.93 7.23766 484.439C7.75348 484.948 8.0431 485.638 8.0431 486.356C8.04308 485.639 8.33132 484.952 8.84497 484.443C9.35862 483.934 10.056 483.646 10.7851 483.641V483.641Z" fill="#D22856"/>
<g opacity="0.3">
<path d="M72.1933 518.425C72.1932 518.092 72.3256 517.773 72.5621 517.535C72.7986 517.296 73.1205 517.159 73.4588 517.151H80.6703C85.7827 517.151 89.1474 519.827 89.1474 524.211V524.27C89.1474 529.069 85.0696 531.557 80.2485 531.557H74.7545V538.291C74.7703 538.466 74.7488 538.642 74.6916 538.808C74.6344 538.974 74.5427 539.127 74.4223 539.256C74.3018 539.386 74.1553 539.489 73.992 539.56C73.8287 539.63 73.6523 539.667 73.4739 539.667C73.2955 539.667 73.1191 539.63 72.9558 539.56C72.7925 539.489 72.646 539.386 72.5256 539.256C72.4051 539.127 72.3134 538.974 72.2562 538.808C72.199 538.642 72.1776 538.466 72.1933 538.291V518.425ZM80.3489 529.286C84.0953 529.286 86.556 527.311 86.556 524.349V524.29C86.556 521.111 84.1355 519.462 80.5297 519.462H74.8047V529.247L80.3489 529.286Z" fill="#283645"/>
<path d="M94.0186 518.267C94.0028 518.092 94.0242 517.916 94.0814 517.75C94.1386 517.584 94.2304 517.431 94.3508 517.302C94.4713 517.173 94.6178 517.069 94.781 516.999C94.9443 516.928 95.1208 516.891 95.2992 516.891C95.4776 516.891 95.654 516.928 95.8173 516.999C95.9806 517.069 96.1271 517.173 96.2475 517.302C96.368 517.431 96.4597 517.584 96.5169 517.75C96.5741 517.916 96.5955 518.092 96.5798 518.267V538.291C96.5955 538.466 96.5741 538.642 96.5169 538.808C96.4597 538.974 96.368 539.127 96.2475 539.256C96.1271 539.386 95.9806 539.489 95.8173 539.56C95.654 539.63 95.4776 539.667 95.2992 539.667C95.1208 539.667 94.9443 539.63 94.781 539.56C94.6178 539.489 94.4713 539.386 94.3508 539.256C94.2304 539.127 94.1386 538.974 94.0814 538.808C94.0242 538.642 94.0028 538.466 94.0186 538.291V518.267Z" fill="#283645"/>
<path d="M103.199 518.296C103.206 517.97 103.343 517.659 103.579 517.429C103.814 517.199 104.132 517.067 104.464 517.062H104.816C105.077 517.067 105.332 517.137 105.559 517.265C105.785 517.393 105.975 517.574 106.111 517.793L119.861 535.023V518.237C119.861 517.913 119.993 517.601 120.226 517.371C120.46 517.142 120.777 517.013 121.107 517.013C121.437 517.013 121.754 517.142 121.988 517.371C122.221 517.601 122.352 517.913 122.352 518.237V538.331C122.358 538.484 122.332 538.636 122.275 538.778C122.219 538.921 122.134 539.051 122.025 539.16C121.916 539.269 121.785 539.355 121.641 539.413C121.497 539.47 121.343 539.499 121.187 539.496H121.057C120.79 539.478 120.531 539.399 120.301 539.265C120.071 539.131 119.876 538.947 119.731 538.726L105.669 521.091V538.331C105.667 538.649 105.541 538.954 105.317 539.184C105.093 539.414 104.788 539.55 104.464 539.565C104.136 539.56 103.822 539.427 103.593 539.196C103.363 538.965 103.236 538.654 103.239 538.331V518.296H103.199Z" fill="#283645"/>
<path d="M128.74 518.267C128.724 518.092 128.746 517.916 128.803 517.75C128.86 517.584 128.952 517.431 129.072 517.302C129.193 517.173 129.339 517.069 129.503 516.999C129.666 516.928 129.842 516.891 130.021 516.891C130.199 516.891 130.376 516.928 130.539 516.999C130.702 517.069 130.849 517.173 130.969 517.302C131.09 517.431 131.181 517.584 131.239 517.75C131.296 517.916 131.317 518.092 131.301 518.267V530.441L144.198 517.437C144.462 517.168 144.822 517.009 145.202 516.993C145.531 517.006 145.842 517.142 146.072 517.373C146.302 517.605 146.433 517.914 146.438 518.237C146.43 518.405 146.39 518.571 146.317 518.723C146.245 518.876 146.142 519.012 146.016 519.126L137.981 526.946L146.648 537.373C146.875 537.631 147 537.96 147 538.301C146.996 538.472 146.958 538.64 146.887 538.796C146.817 538.952 146.716 539.093 146.59 539.211C146.464 539.328 146.315 539.42 146.153 539.481C145.991 539.542 145.818 539.57 145.644 539.565C145.441 539.56 145.243 539.504 145.068 539.404C144.892 539.304 144.745 539.163 144.64 538.992L136.193 528.635L131.301 533.433V538.272C131.301 538.436 131.268 538.599 131.204 538.751C131.14 538.904 131.046 539.042 130.928 539.158C130.809 539.275 130.669 539.367 130.514 539.43C130.359 539.493 130.193 539.526 130.026 539.526C129.858 539.526 129.692 539.493 129.538 539.43C129.383 539.367 129.242 539.275 129.124 539.158C129.005 539.042 128.911 538.904 128.847 538.751C128.783 538.599 128.75 538.436 128.75 538.272V518.267H128.74Z" fill="#283645"/>
<path d="M98.9401 509.746C97.9749 509.746 97.0491 509.369 96.3656 508.699C95.6822 508.029 95.2969 507.12 95.2942 506.171C95.2942 507.119 94.9111 508.028 94.2293 508.699C93.5474 509.369 92.6226 509.746 91.6583 509.746C92.6235 509.748 93.5483 510.127 94.2299 510.799C94.9115 511.471 95.2942 512.381 95.2942 513.33C95.2969 512.38 95.6818 511.47 96.365 510.798C97.0482 510.127 97.974 509.748 98.9401 509.746V509.746Z" fill="#D22856"/>
<path d="M43.287 519.067C43.5381 519.067 43.7792 519.067 44.0202 519.067C43.8019 518.699 43.4897 518.393 43.1145 518.18C42.7393 517.967 42.3141 517.854 41.8809 517.852C41.4627 517.852 41.055 517.723 40.7147 517.484C40.3745 517.245 40.1185 516.908 39.9826 516.519C39.2588 516.724 38.5561 516.996 37.8834 517.329H38.0743C38.607 517.329 39.118 517.537 39.4947 517.907C39.8714 518.278 40.083 518.78 40.083 519.304C40.088 519.399 40.088 519.495 40.083 519.59C41.109 519.222 42.1953 519.045 43.287 519.067V519.067Z" fill="#D22856"/>
<path d="M60.7332 527.647L55.5406 506.566C55.179 504.246 52.9291 500 46.9028 500C46.5033 500 46.1201 500.156 45.8375 500.434C45.555 500.712 45.3962 501.088 45.3962 501.481C45.3962 501.874 45.555 502.251 45.8375 502.528C46.1201 502.806 46.5033 502.962 46.9028 502.962C51.7741 502.962 52.4973 506.645 52.5676 507.05L57.3485 526.502H55.2493C55.0321 524.805 54.4439 523.174 53.525 521.722C52.6061 520.27 51.3783 519.031 49.926 518.089C49.4712 518.277 49.0829 518.593 48.8096 518.997C48.5363 519.401 48.3901 519.875 48.3893 520.36C48.3948 520.446 48.3948 520.531 48.3893 520.617C49.6107 521.44 50.6131 522.54 51.3122 523.824C52.0113 525.107 52.3867 526.537 52.4069 527.993C52.4008 528.489 52.3538 528.985 52.2663 529.474C51.9374 531.571 50.8559 533.484 49.2173 534.866C47.5786 536.247 45.4911 537.007 43.3322 537.007C41.1734 537.007 39.0859 536.247 37.4472 534.866C35.8086 533.484 34.727 531.571 34.3982 529.474C34.3107 528.985 34.2637 528.489 34.2576 527.993C34.2733 526.623 34.5993 525.274 35.2118 524.043C34.7037 524.008 34.2282 523.785 33.8814 523.418C33.5346 523.051 33.3424 522.569 33.3436 522.068C33.3453 521.889 33.277 521.716 33.1528 521.585C32.181 523.075 31.5662 524.763 31.3549 526.522H29.4868C29.1663 523.617 27.7658 520.932 25.5542 518.981C23.3427 517.03 20.4759 515.951 17.5044 515.951C14.5329 515.951 11.6662 517.03 9.45463 518.981C7.24307 520.932 5.84259 523.617 5.5221 526.522H3.44302L8.23394 507.05C8.29421 506.645 9.0475 502.962 13.8987 502.962C14.2983 502.962 14.6815 502.806 14.964 502.528C15.2465 502.251 15.4053 501.874 15.4053 501.481C15.4053 501.088 15.2465 500.712 14.964 500.434C14.6815 500.156 14.2983 500 13.8987 500C7.87236 500 5.62254 504.246 5.26096 506.566L0.0582358 527.647C-0.00612168 527.862 -0.0173251 528.088 0.0255611 528.308C0.0684473 528.528 0.164178 528.734 0.304759 528.91C0.44534 529.086 0.62669 529.226 0.833664 529.319C1.04064 529.412 1.26723 529.455 1.49451 529.444H5.51206C5.59378 530.055 5.72135 530.659 5.89372 531.251C5.95717 531.143 5.99172 531.021 5.99416 530.896C5.99416 530.372 6.2058 529.87 6.58252 529.499C6.95923 529.129 7.47017 528.921 8.00293 528.921C8.16525 528.925 8.32675 528.945 8.48504 528.98C8.44252 528.653 8.41904 528.323 8.41473 527.993C8.41742 527.496 8.46109 527.001 8.5453 526.512C8.86708 524.407 9.94626 522.486 11.5867 521.098C13.2271 519.71 15.3198 518.946 17.4843 518.946C19.6489 518.946 21.7416 519.71 23.382 521.098C25.0224 522.486 26.1016 524.407 26.4234 526.512C26.5076 527.001 26.5513 527.496 26.554 527.993C26.5638 529.651 26.1017 531.278 25.2199 532.691C24.3381 534.105 23.0717 535.247 21.5639 535.99C20.0561 536.733 18.3671 537.046 16.6877 536.894C15.0083 536.742 13.4056 536.132 12.0607 535.132C11.6982 535.441 11.235 535.613 10.755 535.615C10.5569 535.618 10.3679 535.697 10.2288 535.836C10.0897 535.974 10.0117 536.161 10.0117 536.356C10.009 536.632 9.94739 536.905 9.83092 537.156C11.9797 538.907 14.6835 539.864 17.4743 539.861C20.4223 539.874 23.2728 538.824 25.4864 536.909C27.7 534.995 29.1232 532.35 29.4868 529.474H31.3147C31.6456 532.369 33.0499 535.043 35.2593 536.985C37.4688 538.927 40.3285 540 43.2921 540C46.2557 540 49.1154 538.927 51.3248 536.985C53.5343 535.043 54.9385 532.369 55.2694 529.474H59.2869C59.5191 529.49 59.7519 529.45 59.9647 529.357C60.1774 529.264 60.3635 529.121 60.5065 528.94C60.6495 528.76 60.7451 528.547 60.7846 528.322C60.8241 528.096 60.8065 527.864 60.7332 527.647V527.647Z" fill="#D22856"/>
<path d="M50.9203 515.917C50.3273 515.918 49.7398 515.804 49.1915 515.582C48.6432 515.36 48.1448 515.034 47.725 514.622C47.3052 514.21 46.9721 513.721 46.7448 513.182C46.5176 512.644 46.4006 512.066 46.4006 511.483C46.3979 512.66 45.9206 513.788 45.0733 514.619C44.2259 515.45 43.0778 515.917 41.8809 515.917C43.0788 515.919 44.2268 516.388 45.0739 517.221C45.9209 518.054 46.3979 519.183 46.4006 520.36C46.4006 519.182 46.8768 518.052 47.7244 517.218C48.572 516.385 49.7216 515.917 50.9203 515.917V515.917Z" fill="#283645"/>
<path d="M38.0743 519.383C37.3417 519.383 36.6392 519.097 36.1212 518.587C35.6032 518.078 35.3122 517.387 35.3122 516.667C35.3122 517.386 35.0226 518.075 34.5068 518.584C33.9909 519.093 33.291 519.38 32.5602 519.383C33.2901 519.383 33.99 519.668 34.5062 520.175C35.0223 520.682 35.3122 521.371 35.3122 522.088C35.3149 521.37 35.607 520.682 36.1247 520.174C36.6424 519.667 37.3435 519.383 38.0743 519.383V519.383Z" fill="#283645"/>
<path d="M10.7851 533.641C10.056 533.635 9.35862 533.347 8.84497 532.838C8.33132 532.33 8.04308 531.642 8.0431 530.925C8.0431 531.644 7.75348 532.333 7.23766 532.842C6.72184 533.351 6.02188 533.638 5.29108 533.641C6.02188 533.643 6.72184 533.93 7.23766 534.439C7.75348 534.948 8.0431 535.638 8.0431 536.356C8.04308 535.639 8.33132 534.952 8.84497 534.443C9.35862 533.934 10.056 533.646 10.7851 533.641V533.641Z" fill="#283645"/>
</g>
</svg>
